{"glyphs":{"0":{"ha":777,"x_min":47,"x_max":729,"o":"m 729 497 q 710 289 729 383 q 650 127 690 194 q 544 23 609 60 q 389 -14 479 -14 q 229 23 294 -14 q 123 127 163 60 q 65 289 83 194 q 47 498 47 384 q 65 707 47 613 q 123 867 83 801 q 229 970 163 934 q 390 1006 295 1006 q 545 970 479 1006 q 650 867 610 934 q 710 707 691 801 q 729 497 729 612 m 262 497 q 268 320 262 398 q 288 188 273 241 q 326 105 301 134 q 389 77 350 77 q 452 105 427 77 q 490 188 476 134 q 509 320 504 241 q 514 497 514 398 q 509 674 514 596 q 490 806 504 753 q 452 887 477 859 q 390 916 428 916 q 327 887 351 916 q 288 806 302 859 q 268 674 273 753 q 262 497 262 596 z "},"1":{"ha":777,"x_min":58,"x_max":708,"o":"m 708 0 l 135 0 l 135 74 l 249 74 q 279 78 267 74 q 301 93 292 83 q 314 120 310 103 q 318 164 318 138 l 318 860 q 268 801 292 827 q 223 755 245 774 q 181 726 201 736 q 139 715 160 715 q 107 723 122 715 q 82 743 93 730 q 65 776 71 757 q 58 818 58 795 q 102 831 79 823 q 152 852 125 839 q 208 882 178 864 q 272 925 237 900 l 370 997 l 525 997 l 525 164 q 528 125 525 142 q 539 97 531 109 q 561 80 547 85 q 596 74 574 74 l 708 74 l 708 0 z "},"2":{"ha":777,"x_min":49,"x_max":713,"o":"m 677 775 q 670 712 677 743 q 647 649 663 682 q 603 580 630 616 q 536 500 576 544 q 442 404 496 457 q 319 285 389 350 l 180 153 l 504 153 q 577 177 547 153 q 619 249 607 202 l 631 292 l 713 292 l 705 0 l 49 0 l 49 143 l 254 353 q 360 471 319 418 q 425 572 401 524 q 458 668 449 621 q 468 768 468 715 q 439 884 468 847 q 359 921 410 921 q 260 860 289 921 q 232 681 232 799 q 160 688 193 681 q 104 712 127 696 q 67 755 81 728 q 54 818 54 781 q 74 890 54 856 q 131 949 93 924 q 227 990 169 975 q 359 1006 284 1006 q 496 990 437 1006 q 597 944 556 974 q 657 871 637 914 q 677 775 677 828 z "},"3":{"ha":777,"x_min":39,"x_max":713,"o":"m 338 -14 q 202 0 259 -14 q 110 37 146 14 q 56 90 73 60 q 39 153 39 120 q 48 199 39 179 q 74 234 58 220 q 112 254 90 248 q 157 261 133 261 q 169 184 157 217 q 204 128 182 151 q 258 95 227 106 q 328 83 290 83 q 392 93 361 83 q 447 125 423 102 q 485 189 471 149 q 498 288 498 229 q 485 361 498 328 q 444 418 471 394 q 376 456 416 442 q 283 469 336 469 l 197 469 l 197 555 l 289 555 q 367 570 334 555 q 422 612 400 585 q 454 677 444 639 q 465 760 465 715 q 436 878 465 835 q 350 921 407 921 q 290 903 313 921 q 253 854 266 884 q 235 785 240 823 q 231 705 231 746 q 97 736 144 705 q 50 829 50 766 q 70 898 50 866 q 127 955 89 930 q 224 992 166 979 q 357 1006 281 1006 q 490 991 430 1006 q 591 947 550 976 q 655 876 633 918 q 677 779 677 833 q 661 693 677 732 q 616 623 645 654 q 549 568 588 591 q 465 529 510 545 q 551 505 507 522 q 631 460 595 488 q 690 388 667 431 q 713 286 713 345 q 681 144 713 201 q 597 52 650 86 q 477 2 545 17 q 338 -14 409 -14 z "},"4":{"ha":777,"x_min":18,"x_max":750,"o":"m 750 258 l 606 258 l 606 174 q 615 121 606 141 q 640 92 625 102 q 675 77 654 81 q 720 74 696 74 l 737 74 l 737 0 l 250 0 l 250 74 l 289 74 q 334 77 313 74 q 370 92 355 81 q 394 121 385 102 q 403 174 403 141 l 403 258 l 18 258 l 18 343 l 412 991 l 606 991 l 606 350 l 750 350 l 750 258 m 403 350 l 403 593 q 405 724 403 654 q 412 860 407 795 q 391 815 406 844 q 359 757 376 787 q 326 700 342 726 q 302 660 311 673 l 115 350 l 403 350 z "},"5":{"ha":777,"x_min":56,"x_max":703,"o":"m 319 83 q 385 95 354 83 q 439 131 416 106 q 476 199 463 156 q 490 306 490 243 q 440 460 490 409 q 301 511 391 511 q 253 509 275 511 q 214 504 232 507 q 179 495 195 500 q 147 486 163 491 l 83 511 l 127 991 l 653 991 l 660 739 l 581 739 l 570 786 q 562 808 566 798 q 551 825 558 818 q 533 835 545 831 q 505 839 522 839 l 216 839 q 216 836 216 838 q 216 827 216 833 q 214 814 215 822 q 213 798 214 806 q 211 778 212 789 q 210 756 210 768 q 208 733 209 745 q 205 709 206 721 l 195 582 q 223 590 205 586 q 260 597 240 594 q 303 601 281 600 q 347 603 326 603 q 493 584 428 603 q 606 529 559 566 q 677 436 652 492 q 703 306 703 380 q 670 154 703 216 q 585 56 637 92 q 468 3 532 19 q 340 -14 404 -14 q 209 1 263 -14 q 120 38 154 15 q 71 91 86 61 q 56 154 56 121 q 86 227 56 203 q 167 250 116 250 q 175 191 167 220 q 201 137 182 161 q 248 98 218 113 q 319 83 277 83 z "},"6":{"ha":777,"x_min":62,"x_max":728,"o":"m 446 924 q 372 899 405 924 q 315 828 339 875 q 277 713 291 781 q 258 557 262 644 q 291 575 273 566 q 333 592 310 585 q 386 604 356 600 q 450 608 416 608 q 565 589 513 608 q 652 532 616 569 q 708 442 688 496 q 728 321 728 388 q 707 185 728 246 q 647 79 687 123 q 546 11 606 35 q 407 -14 486 -14 q 267 15 330 -14 q 158 101 203 43 q 88 249 113 159 q 62 458 62 338 q 87 673 62 572 q 160 846 111 773 q 284 963 209 920 q 458 1006 359 1006 q 572 993 526 1006 q 648 959 619 980 q 691 910 677 938 q 704 852 704 882 q 695 812 704 831 q 667 777 686 792 q 615 753 647 762 q 538 745 584 745 q 534 808 538 776 q 519 865 530 840 q 491 907 509 891 q 446 924 473 924 m 399 524 q 359 518 380 524 q 319 503 338 512 q 283 481 300 493 q 258 457 267 469 q 271 286 259 358 q 304 168 283 214 q 352 100 324 121 q 411 78 379 78 q 459 92 438 78 q 496 133 480 106 q 518 204 511 160 q 526 307 526 248 q 492 471 526 419 q 399 524 458 524 z "},"7":{"ha":777,"x_min":61,"x_max":730,"o":"m 347 0 l 229 0 l 599 840 l 233 840 q 176 822 195 840 q 153 770 157 804 l 144 700 l 61 700 l 68 991 l 730 991 l 730 924 l 347 0 z "},"8":{"ha":777,"x_min":41,"x_max":734,"o":"m 41 253 q 56 334 41 298 q 98 399 71 370 q 163 453 125 429 q 245 501 201 478 q 118 611 163 549 q 74 753 74 672 q 91 847 74 801 q 145 928 107 893 q 245 984 183 962 q 396 1006 307 1006 q 525 987 469 1006 q 617 937 581 969 q 673 860 654 904 q 692 762 692 815 q 679 689 692 722 q 641 631 665 657 q 582 583 616 605 q 504 538 547 560 q 611 476 566 507 q 682 412 655 446 q 722 342 709 379 q 734 262 734 304 q 710 145 734 197 q 641 59 686 94 q 529 5 595 24 q 379 -14 463 -14 q 229 7 292 -14 q 123 64 165 28 q 62 149 82 100 q 41 253 41 198 m 517 765 q 508 824 517 795 q 484 875 500 852 q 443 911 467 897 q 387 925 419 925 q 337 913 359 925 q 300 881 315 901 q 277 831 285 860 q 269 770 269 803 q 279 707 269 734 q 308 658 289 680 q 355 619 327 636 q 419 585 382 602 q 463 616 445 600 q 494 655 481 633 q 511 704 505 677 q 517 765 517 730 m 386 65 q 451 78 422 65 q 500 114 479 91 q 531 169 520 137 q 542 239 542 201 q 530 300 542 273 q 494 352 519 328 q 431 398 469 376 q 339 446 392 421 q 296 411 316 431 q 261 368 275 392 q 238 314 246 344 q 229 248 229 284 q 240 173 229 207 q 273 116 252 140 q 322 78 293 92 q 386 65 351 65 z "},"9":{"ha":777,"x_min":49,"x_max":714,"o":"m 380 482 q 467 508 431 482 q 524 575 503 533 q 512 728 523 664 q 481 833 500 792 q 435 893 463 873 q 375 913 408 913 q 283 854 316 913 q 250 677 250 795 q 283 532 250 582 q 380 482 315 482 m 315 -14 q 209 0 252 -14 q 138 35 165 13 q 99 85 111 57 q 87 143 87 113 q 104 194 87 174 q 155 222 121 215 q 180 164 165 191 q 214 117 194 137 q 261 85 234 97 q 322 74 288 74 q 405 99 369 74 q 467 175 441 125 q 506 301 492 225 q 524 476 520 376 q 487 439 507 456 q 442 409 467 422 q 387 389 417 396 q 321 382 357 382 q 212 400 262 382 q 125 456 161 419 q 69 546 89 492 q 49 669 49 600 q 71 806 49 744 q 134 913 93 868 q 233 981 174 957 q 367 1006 292 1006 q 506 979 441 1006 q 616 895 570 951 q 688 749 663 838 q 714 539 714 661 q 692 324 714 425 q 622 149 669 223 q 498 30 574 74 q 315 -14 422 -14 z "},"\u0000":{"ha":407,"x_min":0,"x_max":0,"o":""},"\r":{"ha":407,"x_min":0,"x_max":0,"o":""}," ":{"ha":407,"x_min":0,"x_max":0,"o":""},"◌":{"ha":1223,"x_min":149,"x_max":1103,"o":"m 641 850 q 664 902 641 880 q 718 923 688 923 q 755 908 741 923 q 770 870 770 893 q 746 820 770 842 q 693 798 723 798 q 655 814 670 798 q 641 850 641 829 m 836 794 q 860 847 836 825 q 913 869 884 869 q 951 854 937 869 q 966 816 966 838 q 942 764 966 785 q 889 742 918 742 q 850 757 865 742 q 836 794 836 772 m 425 795 q 448 847 425 825 q 501 869 472 869 q 539 854 525 869 q 554 816 554 838 q 531 764 554 786 q 477 742 508 742 q 439 758 454 742 q 425 795 425 773 m 959 644 q 982 696 959 675 q 1036 718 1006 718 q 1074 703 1059 718 q 1088 665 1088 688 q 1065 613 1088 635 q 1010 591 1042 591 q 973 607 987 591 q 959 644 959 622 m 245 644 q 268 696 245 675 q 321 718 292 718 q 359 703 345 718 q 374 665 374 688 q 351 613 374 635 q 296 591 327 591 q 259 606 273 591 q 245 644 245 621 m 973 437 q 997 490 973 469 q 1050 512 1020 512 q 1088 497 1074 512 q 1103 458 1103 481 q 1079 407 1103 429 q 1025 385 1055 385 q 987 400 1002 385 q 973 437 973 414 m 149 437 q 173 490 149 469 q 227 512 196 512 q 264 497 250 512 q 279 458 279 481 q 255 407 279 429 q 201 385 231 385 q 163 400 178 385 q 149 437 149 414 m 879 232 q 902 284 879 262 q 956 306 926 306 q 994 290 979 306 q 1008 252 1008 275 q 985 200 1008 222 q 930 178 962 178 q 893 194 907 178 q 879 232 879 210 m 164 231 q 188 284 164 262 q 241 306 212 306 q 279 290 264 306 q 294 252 294 275 q 270 200 294 222 q 216 178 247 178 q 178 193 193 178 q 164 231 164 208 m 698 82 q 721 134 698 113 q 775 156 745 156 q 812 141 798 156 q 827 103 827 125 q 803 50 827 73 q 750 28 779 28 q 712 44 726 28 q 698 82 698 60 m 286 83 q 310 134 286 113 q 363 156 333 156 q 401 141 387 156 q 415 103 415 125 q 392 51 415 73 q 338 28 369 28 q 301 44 315 28 q 286 83 286 61 m 480 25 q 504 78 480 56 q 557 99 528 99 q 595 84 581 99 q 610 46 610 69 q 586 -6 610 16 q 532 -28 563 -28 q 495 -13 509 -28 q 480 25 480 3 z "},"‌":{"ha":0,"x_min":-138,"x_max":285,"o":"m -138 -334 l 199 1394 l 285 1394 l -52 -334 l -138 -334 z "},"﻿":{"ha":0,"x_min":-138,"x_max":481,"o":"m 467 1325 l 271 1325 l -52 -334 l -138 -334 l 199 1394 l 481 1394 l 467 1325 z "},".":{"ha":422,"x_min":97,"x_max":325,"o":"m 97 100 q 106 153 97 132 q 130 187 115 174 q 166 205 145 200 q 211 211 187 211 q 255 205 234 211 q 291 187 275 200 q 316 153 307 174 q 325 100 325 132 q 316 47 325 68 q 291 14 307 26 q 255 -5 275 1 q 211 -11 234 -11 q 166 -5 187 -11 q 130 14 145 1 q 106 47 115 26 q 97 100 97 68 z "},",":{"ha":408,"x_min":62,"x_max":311,"o":"m 311 58 q 298 -27 311 14 q 254 -104 284 -69 q 177 -167 224 -138 q 62 -214 130 -195 l 62 -142 q 116 -120 93 -131 q 154 -96 139 -109 q 177 -69 169 -84 q 184 -33 184 -54 q 177 -12 184 -20 q 159 4 170 -3 q 147 12 153 7 q 134 20 141 16 q 110 39 121 27 q 91 70 98 52 q 85 90 87 79 q 83 115 83 102 q 112 186 83 162 q 183 211 140 211 q 277 170 242 211 q 311 58 311 129 z "},":":{"ha":422,"x_min":97,"x_max":325,"o":"m 97 646 q 106 699 97 677 q 130 733 115 720 q 166 751 145 746 q 211 757 187 757 q 255 751 234 757 q 291 733 275 746 q 316 699 307 720 q 325 646 325 677 q 316 593 325 614 q 291 559 307 572 q 255 540 275 546 q 211 534 234 534 q 166 540 187 534 q 130 559 145 546 q 106 593 115 572 q 97 646 97 614 m 97 100 q 106 153 97 132 q 130 187 115 174 q 166 205 145 200 q 211 211 187 211 q 255 205 234 211 q 291 187 275 200 q 316 153 307 174 q 325 100 325 132 q 316 47 325 68 q 291 14 307 26 q 255 -5 275 1 q 211 -11 234 -11 q 166 -5 187 -11 q 130 14 145 1 q 106 47 115 26 q 97 100 97 68 z "},";":{"ha":408,"x_min":62,"x_max":325,"o":"m 97 646 q 106 699 97 677 q 130 733 115 720 q 166 751 145 746 q 211 757 187 757 q 255 751 234 757 q 291 733 275 746 q 316 699 307 720 q 325 646 325 677 q 316 593 325 614 q 291 559 307 572 q 255 540 275 546 q 211 534 234 534 q 166 540 187 534 q 130 559 145 546 q 106 593 115 572 q 97 646 97 614 m 311 58 q 298 -27 311 14 q 254 -104 284 -69 q 177 -167 224 -138 q 62 -214 130 -195 l 62 -142 q 116 -120 93 -131 q 154 -96 139 -109 q 177 -69 169 -84 q 184 -33 184 -54 q 177 -12 184 -20 q 159 4 170 -3 q 147 12 153 7 q 134 20 141 16 q 110 39 121 27 q 91 70 98 52 q 85 90 87 79 q 83 115 83 102 q 112 186 83 162 q 183 211 140 211 q 277 170 242 211 q 311 58 311 129 z "},"…":{"ha":1100,"x_min":41,"x_max":954,"o":"m 719 75 q 733 141 719 112 q 772 187 747 170 q 812 205 790 200 q 857 211 833 211 q 900 205 880 211 q 933 187 920 200 q 948 162 943 178 q 954 126 954 146 q 939 59 954 87 q 899 14 924 31 q 859 -5 881 1 q 814 -11 838 -11 q 771 -5 791 -11 q 739 14 751 1 q 724 38 730 22 q 719 75 719 54 m 380 75 q 394 141 380 112 q 433 187 408 170 q 473 205 451 200 q 518 211 494 211 q 561 205 541 211 q 594 187 581 200 q 609 162 604 178 q 614 126 614 146 q 600 59 614 87 q 560 14 585 31 q 520 -5 542 1 q 475 -11 498 -11 q 432 -5 452 -11 q 399 14 412 1 q 385 38 391 22 q 380 75 380 54 m 41 75 q 55 141 41 112 q 94 187 69 170 q 134 205 112 200 q 179 211 155 211 q 222 205 202 211 q 255 187 242 200 q 270 162 264 178 q 275 126 275 146 q 261 59 275 87 q 221 14 246 31 q 181 -5 203 1 q 136 -11 159 -11 q 93 -5 113 -11 q 60 14 73 1 q 46 38 52 22 q 41 75 41 54 z "},"!":{"ha":530,"x_min":144,"x_max":386,"o":"m 227 317 l 144 991 l 386 991 l 304 317 l 227 317 m 153 100 q 162 153 153 132 q 186 187 171 174 q 222 205 201 200 q 267 211 243 211 q 310 205 290 211 q 347 187 331 200 q 371 153 362 174 q 380 100 380 132 q 371 47 380 68 q 347 14 362 26 q 310 -5 331 1 q 267 -11 290 -11 q 222 -5 243 -11 q 186 14 201 1 q 162 47 171 26 q 153 100 153 68 z "},"?":{"ha":764,"x_min":52,"x_max":688,"o":"m 688 750 q 670 651 688 695 q 618 570 653 606 q 532 502 584 533 q 411 443 479 471 l 383 317 l 298 317 l 271 488 q 368 544 330 511 q 429 613 406 576 q 458 691 450 650 q 467 772 467 732 q 460 833 467 806 q 441 881 454 861 q 408 911 429 901 q 358 922 387 922 q 306 908 327 922 q 272 870 285 894 q 253 814 259 846 q 248 747 248 782 q 169 753 205 747 q 107 772 133 760 q 66 802 81 783 q 52 844 52 820 q 69 908 52 878 q 123 959 87 937 q 215 993 159 981 q 347 1006 271 1006 q 483 988 420 1006 q 591 939 546 971 q 662 858 635 905 q 688 750 688 810 m 225 100 q 234 153 225 132 q 258 187 243 174 q 294 205 273 200 q 339 211 315 211 q 383 205 362 211 q 419 187 404 200 q 444 153 435 174 q 453 100 453 132 q 444 47 453 68 q 419 14 435 26 q 383 -5 404 1 q 339 -11 362 -11 q 294 -5 315 -11 q 258 14 273 1 q 234 47 243 26 q 225 100 225 68 z "},"'":{"ha":403,"x_min":93,"x_max":310,"o":"m 155 610 l 93 991 l 310 991 l 248 610 l 155 610 z "},"\"":{"ha":705,"x_min":93,"x_max":612,"o":"m 155 610 l 93 991 l 310 991 l 248 610 l 155 610 m 472 610 l 396 991 l 612 991 l 564 610 l 472 610 z "},"‛":{"ha":389,"x_min":140,"x_max":446,"o":"m 140 683 q 163 783 140 732 q 234 882 185 835 q 323 945 271 916 q 446 991 376 973 l 433 920 q 375 898 399 909 q 333 875 350 887 q 299 841 310 859 q 288 805 288 823 q 294 787 288 794 q 309 774 300 781 q 319 766 313 770 q 330 759 324 762 q 350 739 341 751 q 363 709 359 727 q 365 698 364 705 q 365 686 365 692 q 329 597 365 628 q 243 567 292 567 q 168 598 195 567 q 140 683 140 629 z "},"’":{"ha":389,"x_min":100,"x_max":406,"o":"m 406 876 q 385 777 406 829 q 313 677 363 724 q 224 614 277 642 q 100 567 171 585 l 114 639 q 172 661 146 650 q 214 684 197 671 q 248 718 237 701 q 258 753 258 736 q 253 771 258 764 q 239 785 248 779 l 218 800 q 197 820 205 808 q 184 850 188 832 q 182 861 183 854 q 182 873 182 867 q 218 961 182 930 q 303 991 254 991 q 379 960 352 991 q 406 876 406 929 z "},"“":{"ha":679,"x_min":140,"x_max":736,"o":"m 431 683 q 453 783 431 732 q 524 882 475 835 q 613 945 561 916 q 736 991 666 973 l 723 920 q 665 898 690 909 q 623 875 640 887 q 589 841 600 859 q 578 805 578 823 q 584 787 578 794 q 599 774 590 781 q 609 766 604 770 q 621 759 614 762 q 641 739 631 751 q 654 709 650 727 q 655 698 654 705 q 655 686 655 692 q 619 597 655 628 q 534 567 583 567 q 458 598 485 567 q 431 683 431 629 m 140 683 q 163 783 140 732 q 234 882 185 835 q 323 945 271 916 q 446 991 376 973 l 433 920 q 375 898 399 909 q 333 875 350 887 q 299 841 310 859 q 288 805 288 823 q 294 787 288 794 q 309 774 300 781 q 319 766 313 770 q 330 759 324 762 q 350 739 341 751 q 363 709 359 727 q 365 698 364 705 q 365 686 365 692 q 329 597 365 628 q 243 567 292 567 q 168 598 195 567 q 140 683 140 629 z "},"”":{"ha":679,"x_min":100,"x_max":696,"o":"m 696 876 q 675 777 696 829 q 604 677 654 724 q 514 614 567 642 q 391 567 461 585 l 404 639 q 462 661 437 650 q 505 684 487 671 q 538 718 528 701 q 548 753 548 736 q 543 771 548 764 q 529 785 538 779 l 508 800 q 487 820 496 808 q 474 850 478 832 q 473 861 473 854 q 472 873 472 867 q 508 961 472 930 q 593 991 545 991 q 669 960 642 991 q 696 876 696 929 m 406 876 q 385 777 406 829 q 313 677 363 724 q 224 614 277 642 q 100 567 171 585 l 114 639 q 172 661 146 650 q 214 684 197 671 q 248 718 237 701 q 258 753 258 736 q 253 771 258 764 q 239 785 248 779 l 218 800 q 197 820 205 808 q 184 850 188 832 q 182 861 183 854 q 182 873 182 867 q 218 961 182 930 q 303 991 254 991 q 379 960 352 991 q 406 876 406 929 z "},"(":{"ha":555,"x_min":79,"x_max":511,"o":"m 302 441 q 311 279 302 359 q 342 129 319 199 q 406 -2 366 58 q 511 -104 447 -62 l 511 -193 q 314 -83 396 -146 q 180 58 231 -20 q 104 233 128 137 q 79 441 79 330 q 104 648 79 553 q 180 823 128 744 q 314 964 231 901 q 511 1072 396 1026 l 511 985 q 406 883 447 942 q 342 753 366 823 q 311 603 319 682 q 302 441 302 524 z "},")":{"ha":555,"x_min":45,"x_max":476,"o":"m 253 441 q 244 603 253 524 q 214 753 236 682 q 150 883 191 823 q 45 985 109 942 l 45 1072 q 243 964 160 1026 q 377 823 326 901 q 452 648 429 744 q 476 441 476 553 q 452 233 476 330 q 377 58 429 137 q 243 -83 326 -20 q 45 -193 160 -146 l 45 -104 q 150 -2 109 -62 q 214 129 191 58 q 244 279 236 199 q 253 441 253 359 z "},"[":{"ha":575,"x_min":139,"x_max":524,"o":"m 524 -178 l 139 -178 l 139 1055 l 524 1055 l 524 982 l 464 982 q 420 979 441 982 q 384 965 399 975 q 359 935 369 954 q 350 882 350 915 l 350 -4 q 359 -57 350 -37 q 384 -87 369 -77 q 420 -101 399 -98 q 464 -104 441 -104 l 524 -104 l 524 -178 z "},"]":{"ha":575,"x_min":52,"x_max":436,"o":"m 52 1055 l 436 1055 l 436 -178 l 52 -178 l 52 -104 l 111 -104 q 156 -101 135 -104 q 192 -87 177 -98 q 216 -57 207 -77 q 225 -4 225 -37 l 225 882 q 216 935 225 915 q 192 965 207 954 q 156 979 177 975 q 111 982 135 982 l 52 982 l 52 1055 z "},"{":{"ha":614,"x_min":41,"x_max":572,"o":"m 572 -174 l 440 -174 q 337 -159 382 -174 q 263 -118 293 -145 q 218 -53 233 -92 q 203 32 203 -15 l 203 269 q 190 334 203 309 q 156 373 178 359 q 105 393 134 387 q 41 400 75 399 l 41 485 q 105 492 75 486 q 156 511 134 497 q 190 550 178 526 q 203 614 203 575 l 203 852 q 263 1002 203 949 q 440 1055 323 1055 l 572 1055 l 572 982 l 518 982 q 469 973 488 982 q 439 947 450 964 q 424 905 429 930 q 419 847 419 880 l 419 611 q 383 508 419 548 q 267 449 347 467 l 267 437 q 382 377 346 418 q 419 273 419 336 l 419 36 q 424 -22 419 3 q 439 -64 429 -47 q 469 -91 450 -81 q 518 -100 488 -100 l 572 -100 l 572 -174 z "},"}":{"ha":614,"x_min":41,"x_max":572,"o":"m 174 -174 l 41 -174 l 41 -100 l 96 -100 q 145 -91 125 -100 q 175 -64 164 -81 q 190 -22 186 -47 q 195 36 195 3 l 195 273 q 231 377 195 336 q 347 437 268 418 l 347 449 q 231 508 267 467 q 195 611 195 548 l 195 847 q 190 905 195 880 q 175 947 186 930 q 145 973 164 964 q 96 982 125 982 l 41 982 l 41 1055 l 174 1055 q 351 1002 290 1055 q 411 852 411 949 l 411 614 q 424 550 411 575 q 458 511 436 526 q 509 492 479 497 q 572 485 538 486 l 572 400 q 509 393 538 399 q 458 373 479 387 q 424 334 436 359 q 411 269 411 309 l 411 32 q 396 -53 411 -15 q 351 -118 380 -92 q 276 -159 321 -145 q 174 -174 232 -174 z "},"<":{"ha":777,"x_min":90,"x_max":686,"o":"m 686 144 l 90 468 l 90 525 l 686 850 l 686 741 l 239 496 l 686 254 l 686 144 z "},">":{"ha":777,"x_min":90,"x_max":686,"o":"m 686 468 l 90 144 l 90 254 l 538 496 l 90 741 l 90 850 l 686 525 l 686 468 z "},"ł":{"ha":400,"x_min":0,"x_max":400,"o":"m 400 1055 l 100 -170 l 0 -168 l 302 1055 l 400 1055 z "},"\\":{"ha":400,"x_min":0,"x_max":400,"o":"m 300 -168 l 0 1055 l 98 1055 l 400 -168 l 300 -168 z "},"|":{"ha":777,"x_min":338,"x_max":437,"o":"m 437 1055 l 437 -334 l 338 -334 l 338 1055 l 437 1055 z "},"@":{"ha":1279,"x_min":71,"x_max":1225,"o":"m 1225 545 q 1200 360 1225 441 q 1134 222 1175 278 q 1042 137 1093 167 q 939 107 991 107 q 834 138 878 107 q 768 237 791 168 l 760 237 q 727 186 745 210 q 686 145 709 163 q 634 117 663 127 q 568 107 605 107 q 486 121 526 107 q 416 165 446 136 q 368 239 385 194 q 350 345 350 283 q 359 425 350 381 q 387 512 368 469 q 436 595 406 555 q 507 667 466 635 q 603 716 549 697 q 724 734 656 734 q 806 722 772 734 q 863 693 841 710 l 921 722 l 954 722 l 896 375 q 893 354 895 367 q 890 328 891 341 q 887 301 888 314 q 886 281 886 289 q 892 234 886 252 q 908 205 899 216 q 929 191 918 195 q 953 187 941 187 q 1009 210 981 187 q 1060 278 1037 233 q 1098 388 1083 322 q 1112 539 1112 454 q 1083 706 1112 634 q 1004 825 1055 778 q 881 897 953 873 q 726 921 810 921 q 597 902 661 921 q 475 849 532 884 q 368 763 417 814 q 283 646 319 711 q 227 501 247 581 q 207 330 207 421 q 243 121 207 208 q 343 -21 280 34 q 490 -101 406 -76 q 667 -126 574 -126 q 777 -116 723 -126 q 878 -90 830 -106 q 968 -52 926 -73 q 1042 -9 1009 -31 l 1075 -62 q 992 -115 1038 -90 q 891 -157 945 -139 q 775 -186 836 -176 q 647 -197 713 -197 q 495 -183 568 -197 q 357 -138 421 -168 q 240 -64 294 -109 q 150 40 187 -19 q 92 174 113 99 q 71 339 71 250 q 94 517 71 432 q 158 674 117 602 q 259 805 199 746 q 393 905 319 864 q 553 969 466 947 q 736 991 640 991 q 948 957 856 991 q 1101 863 1040 922 q 1194 721 1162 803 q 1225 545 1225 638 m 521 330 q 545 224 521 262 q 610 187 570 187 q 661 202 640 187 q 697 239 682 216 q 721 292 711 262 q 736 351 730 321 l 791 635 q 780 652 787 644 q 762 664 772 659 q 740 671 751 669 q 718 673 729 673 q 655 656 684 673 q 605 610 627 638 q 567 544 583 581 q 541 469 551 507 q 526 394 530 431 q 521 330 521 358 z "},"&":{"ha":1112,"x_min":65,"x_max":1095,"o":"m 574 807 q 569 852 574 831 q 554 889 565 873 q 524 913 543 905 q 476 922 505 922 q 436 913 453 922 q 408 889 418 905 q 391 852 397 873 q 386 806 386 831 q 391 760 386 782 q 408 718 397 739 q 434 674 418 696 q 472 628 450 652 q 521 663 501 644 q 552 703 541 682 q 569 749 564 724 q 574 807 574 775 m 269 275 q 282 199 269 235 q 319 136 296 163 q 378 95 343 110 q 453 79 412 79 q 577 103 526 79 q 663 168 629 127 l 366 485 q 318 440 336 464 q 288 391 299 417 q 273 336 277 365 q 269 275 269 307 m 1095 0 l 819 0 l 724 102 q 666 55 698 76 q 597 19 635 34 q 514 -5 559 4 q 418 -14 470 -14 q 267 6 333 -14 q 156 64 201 26 q 88 158 111 102 q 65 282 65 213 q 84 387 65 343 q 136 461 104 430 q 212 514 169 492 q 302 555 256 536 q 255 617 275 588 q 222 676 235 647 q 203 736 210 705 q 197 802 197 767 q 215 885 197 848 q 268 949 233 922 q 355 991 302 977 q 476 1006 408 1006 q 593 990 543 1006 q 676 947 643 975 q 725 884 709 920 q 742 808 742 848 q 729 732 742 766 q 690 670 716 699 q 624 616 664 641 q 530 566 585 591 q 534 561 532 563 q 541 555 537 558 l 737 349 q 749 444 746 397 q 751 530 751 492 l 751 591 l 1055 591 l 1055 518 l 1034 518 q 988 515 1010 518 q 947 503 966 513 q 914 474 928 493 q 890 424 899 456 q 865 341 880 385 q 829 253 850 298 l 968 109 q 1016 81 987 87 q 1082 74 1045 74 l 1095 74 l 1095 0 z "},"*":{"ha":697,"x_min":49,"x_max":648,"o":"m 265 783 l 49 839 l 111 979 l 318 829 l 272 1055 l 428 1055 l 378 832 l 586 977 l 648 838 l 432 783 l 648 728 l 586 590 l 378 734 l 427 510 l 272 510 l 317 736 l 111 589 l 49 726 l 265 783 z "},"÷":{"ha":777,"x_min":90,"x_max":686,"o":"m 311 760 q 317 800 311 783 q 334 826 323 816 q 358 840 344 836 q 389 844 372 844 q 419 840 405 844 q 444 826 433 836 q 460 800 454 816 q 467 760 467 783 q 460 720 467 736 q 444 694 454 704 q 419 679 433 684 q 389 675 405 675 q 333 694 355 675 q 311 760 311 713 m 686 546 l 686 447 l 90 447 l 90 546 l 686 546 m 311 233 q 317 273 311 257 q 334 300 323 290 q 358 314 344 309 q 389 318 372 318 q 419 314 405 318 q 444 300 433 309 q 460 273 454 290 q 467 233 467 257 q 460 194 467 210 q 444 168 454 178 q 419 153 433 157 q 389 149 405 149 q 333 168 355 149 q 311 233 311 186 z "},"×":{"ha":777,"x_min":113,"x_max":663,"o":"m 593 222 l 387 428 l 183 222 l 113 293 l 317 498 l 113 703 l 183 772 l 387 568 l 591 774 l 663 703 l 457 497 l 663 292 l 593 222 z "},"+":{"ha":777,"x_min":90,"x_max":686,"o":"m 686 447 l 437 447 l 437 199 l 338 199 l 338 447 l 90 447 l 90 546 l 338 546 l 338 794 l 437 794 l 437 546 l 686 546 l 686 447 z "},"−":{"ha":431,"x_min":22,"x_max":411,"o":"m 411 452 l 383 306 l 22 306 l 50 452 l 411 452 z "},"=":{"ha":777,"x_min":87,"x_max":689,"o":"m 87 679 l 689 679 l 689 582 l 87 582 l 87 679 m 87 410 l 689 410 l 689 313 l 87 313 l 87 410 z "},"%":{"ha":1258,"x_min":47,"x_max":1211,"o":"m 547 699 q 532 572 547 629 q 486 474 516 515 q 407 411 454 433 q 297 389 360 389 q 184 411 232 389 q 106 474 136 433 q 62 572 76 515 q 47 699 47 629 q 62 825 47 768 q 106 922 76 882 q 184 984 137 962 q 298 1006 232 1006 q 408 984 361 1006 q 486 922 454 962 q 532 825 517 882 q 547 699 547 768 m 920 991 l 441 0 l 334 0 l 812 991 l 920 991 m 204 699 q 209 597 204 642 q 225 522 214 553 q 254 475 236 491 q 297 458 272 458 q 341 475 323 458 q 369 522 358 491 q 384 597 380 553 q 389 699 389 642 q 384 798 389 753 q 370 872 380 842 q 341 919 359 903 q 298 935 324 935 q 255 919 273 935 q 226 872 237 903 q 210 798 215 842 q 204 699 204 753 m 1211 296 q 1196 169 1211 227 q 1149 71 1180 112 q 1071 8 1118 31 q 961 -14 1024 -14 q 848 8 896 -14 q 770 71 800 31 q 726 169 740 112 q 711 296 711 227 q 726 422 711 365 q 770 519 740 479 q 848 581 801 559 q 962 603 896 603 q 1072 581 1025 603 q 1149 519 1118 559 q 1196 422 1181 479 q 1211 296 1211 365 m 868 296 q 873 194 868 239 q 889 119 878 150 q 918 72 900 88 q 961 56 936 56 q 1005 72 987 56 q 1033 119 1022 88 q 1048 194 1044 150 q 1053 296 1053 239 q 1048 395 1053 351 q 1034 469 1044 439 q 1005 516 1023 500 q 962 532 988 532 q 919 516 937 532 q 890 469 901 500 q 873 395 879 439 q 868 296 868 351 z "},"-":{"ha":431,"x_min":35,"x_max":396,"o":"m 396 306 l 35 306 l 35 452 l 396 452 l 396 306 z "},"–":{"ha":694,"x_min":-16,"x_max":711,"o":"m 3 422 l 711 422 l 692 323 l -16 323 l 3 422 z "},"—":{"ha":1389,"x_min":-16,"x_max":1405,"o":"m 3 422 l 1405 422 l 1386 323 l -16 323 l 3 422 z "},"#":{"ha":777,"x_min":39,"x_max":737,"o":"m 343 625 l 294 374 l 440 374 l 489 625 l 343 625 m 539 374 l 693 374 l 693 278 l 519 278 l 468 0 l 370 0 l 421 278 l 277 278 l 224 0 l 125 0 l 178 278 l 39 278 l 39 374 l 196 374 l 244 625 l 83 625 l 83 722 l 262 722 l 311 991 l 411 991 l 361 722 l 505 722 l 557 991 l 656 991 l 604 722 l 737 722 l 737 625 l 586 625 l 539 374 z "},"$":{"ha":777,"x_min":68,"x_max":707,"o":"m 261 765 q 265 730 261 747 q 280 697 269 713 q 309 666 291 681 q 355 635 328 650 l 355 875 q 288 840 315 867 q 261 765 261 812 m 542 264 q 515 339 542 308 q 433 399 488 370 l 433 136 q 514 182 486 148 q 542 264 542 217 m 355 1055 l 433 1055 l 433 950 q 539 937 494 948 q 614 907 585 925 q 657 863 643 888 q 671 811 671 839 q 633 739 671 767 q 518 710 595 710 q 513 754 518 730 q 498 800 509 778 q 472 840 488 822 q 433 868 456 858 l 433 597 q 439 595 435 597 q 449 591 444 593 q 459 587 454 589 q 468 583 465 585 q 577 532 531 558 q 652 474 623 505 q 693 407 680 443 q 707 326 707 370 q 688 228 707 273 q 635 149 669 183 q 549 92 600 114 q 433 62 498 70 l 433 -110 l 355 -110 l 355 60 q 221 80 277 62 q 132 126 166 98 q 83 188 98 154 q 68 254 68 222 q 79 306 68 285 q 109 340 90 328 q 150 359 127 353 q 199 366 174 366 q 210 273 199 313 q 242 203 221 232 q 292 157 262 174 q 355 134 321 139 l 355 433 l 332 443 q 221 498 265 470 q 149 557 176 526 q 110 625 122 589 q 98 707 98 662 q 117 799 98 757 q 170 871 136 840 q 251 923 204 903 q 355 949 298 943 l 355 1055 z "},"¢":{"ha":777,"x_min":79,"x_max":720,"o":"m 387 0 l 387 115 q 261 144 318 120 q 164 212 204 168 q 101 328 123 257 q 79 497 79 398 q 103 673 79 600 q 167 791 126 745 q 264 861 208 838 q 387 889 321 884 l 387 991 l 473 991 l 473 889 q 579 873 532 886 q 656 842 625 861 q 704 798 688 823 q 720 745 720 772 q 712 701 720 722 q 684 663 704 680 q 629 637 664 647 q 541 627 595 627 q 537 684 541 656 q 526 734 534 711 q 505 774 518 758 q 473 799 492 791 l 473 218 q 539 228 508 219 q 596 252 571 237 q 641 287 621 267 q 672 330 660 307 q 698 303 690 320 q 707 267 707 286 q 693 218 707 243 q 650 172 679 193 q 578 135 622 151 q 473 115 534 119 l 473 0 l 387 0 m 292 498 q 314 326 292 392 q 387 235 337 260 l 387 796 q 347 765 365 786 q 317 708 330 743 q 298 621 304 673 q 292 498 292 569 z "},"₹":{"ha":824,"x_min":79,"x_max":878,"o":"m 698 74 l 684 0 l 638 0 q 462 19 528 0 q 366 125 396 38 l 259 431 l 79 431 l 95 511 l 261 511 q 395 555 350 511 q 461 681 440 598 l 127 681 l 144 763 l 476 763 q 452 874 484 839 q 336 909 420 909 l 172 909 l 188 991 l 878 991 l 862 909 l 669 909 q 705 845 694 882 q 710 763 715 808 l 833 763 l 817 681 l 690 681 q 603 553 663 604 q 465 472 543 501 l 576 187 q 621 106 595 139 q 692 74 648 74 l 698 74 z "},"^":{"ha":777,"x_min":64,"x_max":711,"o":"m 64 364 l 357 991 l 416 991 l 711 364 l 603 364 l 386 840 l 172 364 l 64 364 z "},"_":{"ha":637,"x_min":-7,"x_max":644,"o":"m 644 -115 l 644 -197 l -7 -197 l -7 -115 l 644 -115 z "},"`":{"ha":802,"x_min":225,"x_max":578,"o":"m 578 842 l 484 842 q 411 889 451 861 q 335 947 372 917 q 268 1004 298 977 q 225 1050 238 1031 l 225 1064 l 443 1064 q 471 1014 454 1041 q 507 959 488 986 q 544 906 525 932 q 578 860 563 880 l 578 842 z "},"~":{"ha":779,"x_min":77,"x_max":703,"o":"m 367 450 q 323 468 342 461 q 289 480 304 475 q 260 486 274 484 q 231 488 245 488 q 191 481 212 488 q 151 464 171 475 q 112 438 131 453 q 77 406 93 423 l 77 513 q 152 568 110 549 q 244 586 194 586 q 281 584 264 586 q 317 578 298 583 q 358 565 335 574 q 412 543 380 557 q 456 525 437 532 q 491 513 475 517 q 520 507 507 509 q 549 505 534 505 q 588 512 568 505 q 629 530 608 519 q 667 555 648 541 q 703 587 686 570 l 703 481 q 627 426 669 444 q 534 407 585 407 q 498 409 515 407 q 463 415 481 410 q 421 428 444 420 q 367 450 399 437 z "},"ऀ":{"ha":0,"x_min":-64,"x_max":439,"o":"m 439 1109 q 420 1040 439 1057 q 377 1017 401 1024 q 334 1159 368 1114 q 233 1204 300 1204 q 112 1159 167 1204 q 16 1023 57 1114 q -44 1053 -24 1034 q -64 1103 -64 1072 q 18 1252 -64 1175 q 221 1328 100 1328 q 388 1252 337 1328 q 439 1109 439 1177 m 289 1069 q 258 1003 289 1031 q 190 975 227 975 q 141 995 160 975 q 121 1044 121 1015 q 153 1110 121 1082 q 222 1139 184 1139 q 270 1118 251 1139 q 289 1069 289 1098 z "},"ँ":{"ha":0,"x_min":-20,"x_max":484,"o":"m 138 1234 q 169 1300 138 1272 q 238 1328 200 1328 q 286 1308 267 1328 q 305 1259 305 1288 q 274 1193 305 1221 q 206 1164 243 1164 q 157 1185 176 1164 q 138 1234 138 1205 m -20 1194 q 0 1263 -20 1246 q 43 1286 19 1279 q 86 1144 52 1190 q 187 1099 121 1099 q 309 1144 254 1099 q 404 1280 363 1189 q 464 1251 444 1270 q 484 1201 484 1231 q 402 1052 484 1128 q 199 975 321 975 q 32 1051 83 975 q -20 1194 -20 1126 z "},"ं":{"ha":0,"x_min":119,"x_max":293,"o":"m 119 1048 q 152 1116 119 1086 q 224 1146 184 1146 q 274 1125 254 1146 q 293 1074 293 1104 q 261 1005 293 1035 q 191 975 229 975 q 139 996 159 975 q 119 1048 119 1017 z "},"ः":{"ha":443,"x_min":136,"x_max":420,"o":"m 221 591 q 258 670 221 636 q 340 705 294 705 q 398 680 375 705 q 420 621 420 656 q 384 543 420 576 q 302 509 347 509 q 243 533 266 509 q 221 591 221 557 m 136 153 q 172 232 136 199 q 254 266 209 266 q 313 242 290 266 q 336 183 336 218 q 298 104 336 138 q 216 71 261 71 q 158 95 181 71 q 136 153 136 119 z "},"ऄ":{"ha":1092,"x_min":136,"x_max":1280,"o":"m 1267 902 l 1280 787 l 1266 771 l 1114 771 l 959 -26 l 942 -39 l 799 -14 l 869 349 q 844 345 854 346 q 820 344 833 344 q 770 349 793 344 q 716 364 747 353 q 729 314 725 342 q 734 260 734 286 q 653 76 734 151 q 450 1 572 1 q 204 151 273 1 q 136 402 136 301 q 150 486 136 450 q 234 526 164 521 q 279 258 228 346 q 429 171 330 171 q 555 213 505 171 q 606 319 606 255 q 596 372 606 345 q 570 415 587 398 q 495 395 536 404 q 408 381 455 387 l 366 526 l 379 543 q 568 601 506 551 q 631 718 631 650 q 608 780 631 756 q 547 803 585 803 q 444 757 490 803 q 385 642 397 711 q 286 668 321 642 q 250 735 250 694 q 318 850 250 795 q 507 905 386 905 q 696 837 628 905 q 764 665 764 768 q 742 552 764 589 q 690 484 720 515 q 716 480 704 481 q 740 479 729 479 q 858 516 806 479 q 922 622 909 553 l 951 771 l 841 771 l 827 886 l 842 902 l 985 902 q 1000 935 995 920 q 1005 960 1005 950 q 974 997 1005 985 q 858 1013 943 1008 q 540 1092 635 1026 q 445 1234 445 1157 q 457 1291 445 1272 q 487 1326 470 1310 q 587 1236 520 1265 q 822 1180 654 1207 q 1036 1088 962 1158 q 1130 902 1110 1018 l 1267 902 z "},"अ":{"ha":1092,"x_min":136,"x_max":1280,"o":"m 250 735 q 318 850 250 795 q 507 905 386 905 q 696 837 628 905 q 764 665 764 768 q 742 552 764 589 q 690 484 720 515 q 716 480 704 481 q 740 479 729 479 q 858 516 806 479 q 922 622 909 553 l 951 771 l 841 771 l 827 886 l 842 902 l 1267 902 l 1280 787 l 1266 771 l 1114 771 l 959 -26 l 942 -39 l 799 -14 l 869 349 q 844 345 854 346 q 820 344 833 344 q 770 349 793 344 q 716 364 747 353 q 729 314 725 342 q 734 260 734 286 q 653 76 734 151 q 450 1 572 1 q 204 151 273 1 q 136 402 136 301 q 150 486 136 450 q 234 526 164 521 q 279 258 228 346 q 429 171 330 171 q 555 213 505 171 q 606 319 606 255 q 596 372 606 345 q 570 415 587 398 q 495 395 536 404 q 408 381 455 387 l 366 526 l 379 543 q 568 601 506 551 q 631 718 631 650 q 608 780 631 756 q 547 803 585 803 q 444 757 490 803 q 385 642 397 711 q 286 668 321 642 q 250 735 250 694 z "},"आ":{"ha":1460,"x_min":136,"x_max":1649,"o":"m 1636 902 l 1649 787 l 1634 771 l 1470 771 l 1314 -26 l 1297 -39 l 1154 -14 l 1307 771 l 1114 771 l 959 -26 l 942 -39 l 799 -14 l 869 349 q 844 345 854 346 q 820 344 833 344 q 770 349 793 344 q 716 364 747 353 q 729 314 725 342 q 734 260 734 286 q 653 76 734 151 q 450 1 572 1 q 204 151 273 1 q 136 402 136 301 q 150 486 136 450 q 234 526 164 521 q 279 258 228 346 q 429 171 330 171 q 555 213 505 171 q 606 319 606 255 q 596 372 606 345 q 570 415 587 398 q 495 395 536 404 q 408 381 455 387 l 366 526 l 379 543 q 568 601 506 551 q 631 718 631 650 q 608 780 631 756 q 547 803 585 803 q 444 757 490 803 q 385 642 397 711 q 286 668 321 642 q 250 735 250 694 q 318 850 250 795 q 507 905 386 905 q 696 837 628 905 q 764 665 764 768 q 742 552 764 589 q 690 484 720 515 q 716 480 704 481 q 740 479 729 479 q 858 516 806 479 q 922 622 909 553 l 951 771 l 841 771 l 827 886 l 842 902 l 1636 902 z "},"इ":{"ha":743,"x_min":136,"x_max":932,"o":"m 708 566 l 441 566 q 359 550 393 566 q 326 503 326 533 q 335 480 326 490 q 361 471 344 471 q 446 485 387 471 q 540 498 506 498 q 657 426 608 498 q 707 277 707 353 q 642 138 707 202 q 428 62 576 73 q 464 6 441 20 q 527 -9 488 -9 q 567 -6 548 -9 q 606 2 587 -3 q 620 -32 614 -15 q 625 -64 625 -50 q 592 -132 625 -106 q 511 -158 558 -158 q 399 -109 454 -158 q 322 62 345 -59 q 196 111 239 70 q 153 201 153 152 q 182 275 153 246 q 258 303 211 303 q 323 282 296 303 q 369 224 350 260 q 533 261 475 225 q 590 334 590 298 q 583 351 590 347 q 566 355 576 355 q 498 345 544 355 q 414 334 452 334 q 251 417 319 334 q 184 574 184 500 q 227 661 184 626 q 357 696 270 696 l 574 696 q 586 699 581 696 q 591 709 590 703 l 603 771 l 150 771 l 136 886 l 151 902 l 919 902 l 932 787 l 918 771 l 762 771 l 724 580 l 708 566 z "},"ई":{"ha":743,"x_min":136,"x_max":935,"o":"m 708 566 l 441 566 q 359 550 393 566 q 326 503 326 533 q 335 480 326 490 q 361 471 344 471 q 446 485 387 471 q 540 498 506 498 q 657 426 608 498 q 707 277 707 353 q 642 138 707 202 q 428 62 576 73 q 464 6 441 20 q 527 -9 488 -9 q 567 -6 548 -9 q 606 2 587 -3 q 620 -32 614 -15 q 625 -64 625 -50 q 592 -132 625 -106 q 511 -158 558 -158 q 399 -109 454 -158 q 322 62 345 -59 q 196 111 239 70 q 153 201 153 152 q 182 275 153 246 q 258 303 211 303 q 323 282 296 303 q 369 224 350 260 q 533 261 475 225 q 590 334 590 298 q 583 351 590 347 q 566 355 576 355 q 498 345 544 355 q 414 334 452 334 q 251 417 319 334 q 184 574 184 500 q 227 661 184 626 q 357 696 270 696 l 574 696 q 586 699 581 696 q 591 709 590 703 l 603 771 l 150 771 l 136 886 l 151 902 l 592 902 q 552 973 565 935 q 538 1048 538 1011 q 601 1195 538 1133 q 764 1257 663 1257 q 890 1215 845 1257 q 935 1118 935 1172 q 932 1089 935 1097 q 926 1077 929 1082 q 873 1112 902 1102 q 817 1122 844 1122 q 713 1081 753 1122 q 673 986 673 1040 q 680 942 673 964 q 700 902 687 920 l 919 902 l 932 787 l 918 771 l 762 771 l 724 580 l 708 566 z "},"उ":{"ha":799,"x_min":114,"x_max":987,"o":"m 975 902 l 987 787 l 973 771 l 734 771 q 774 701 762 737 q 786 634 786 665 q 761 542 786 587 q 686 462 735 498 q 736 381 718 429 q 755 281 755 333 q 667 84 755 166 q 445 1 580 1 q 185 160 256 1 q 114 427 114 319 q 140 528 114 500 q 215 560 167 556 q 266 263 206 359 q 425 168 326 168 q 560 214 500 168 q 619 338 619 261 q 612 378 619 359 q 591 413 606 398 q 502 391 550 399 q 398 383 453 383 l 360 546 l 374 562 q 583 602 528 569 q 637 697 637 635 q 610 753 637 734 q 539 771 584 771 l 150 771 l 136 886 l 151 902 l 975 902 z "},"ऊ":{"ha":1059,"x_min":114,"x_max":1247,"o":"m 1233 771 l 734 771 q 774 701 762 737 q 786 634 786 665 q 761 542 786 587 q 686 462 735 498 q 695 452 690 457 q 703 441 699 446 q 806 514 763 494 q 885 535 848 535 q 1023 459 966 535 q 1081 279 1081 383 q 1024 105 1081 173 q 904 38 968 38 q 828 66 866 38 q 772 144 789 94 q 899 237 848 174 q 950 364 950 299 q 941 399 950 388 q 918 410 932 410 q 846 378 889 410 q 755 288 804 347 q 754 264 755 277 q 750 239 753 252 q 647 70 730 138 q 445 1 564 1 q 185 160 256 1 q 114 427 114 319 q 140 528 114 500 q 215 560 167 556 q 266 263 206 359 q 425 168 326 168 q 560 214 500 168 q 619 338 619 261 q 612 378 619 359 q 591 413 606 398 q 502 391 550 399 q 398 383 453 383 l 360 546 l 374 562 q 583 602 528 569 q 637 697 637 635 q 610 753 637 734 q 539 771 584 771 l 150 771 l 136 886 l 151 902 l 1234 902 l 1247 787 l 1233 771 z "},"ऋ":{"ha":1201,"x_min":136,"x_max":1390,"o":"m 1377 902 l 1390 787 l 1375 771 l 851 771 l 797 491 q 872 512 836 498 q 943 547 909 526 q 932 581 935 564 q 928 608 928 597 q 956 679 928 642 q 1042 715 983 715 q 1134 675 1099 715 q 1168 585 1168 635 q 1150 521 1168 552 q 1093 458 1131 490 q 1154 334 1133 391 q 1174 233 1174 278 q 1117 102 1174 155 q 989 49 1060 49 q 904 85 935 49 q 876 183 873 121 q 1004 223 961 191 q 1047 307 1047 254 q 1041 349 1047 323 q 1017 409 1034 374 q 900 364 964 382 q 768 344 836 347 l 696 -26 l 679 -39 l 536 -14 l 591 273 q 441 171 505 217 q 303 66 377 124 l 192 182 l 196 201 q 376 330 282 266 q 571 453 469 394 q 474 520 506 506 q 420 534 443 534 q 340 513 381 534 q 265 457 298 492 q 198 510 222 482 q 175 567 175 537 q 223 651 175 610 q 354 691 272 691 q 467 657 411 691 q 640 522 524 624 l 688 771 l 150 771 l 136 886 l 151 902 l 1377 902 z "},"ऌ":{"ha":1011,"x_min":136,"x_max":1200,"o":"m 1187 902 l 1200 787 l 1185 771 l 932 771 l 898 593 q 984 508 951 566 q 1018 380 1018 451 q 986 260 1018 304 q 895 156 955 215 q 768 42 809 71 q 726 -16 726 12 q 733 -31 726 -25 q 752 -37 739 -37 q 827 -14 778 -37 q 914 59 876 9 q 981 15 957 46 q 1004 -47 1004 -17 q 949 -131 1004 -92 q 818 -170 893 -170 q 664 -110 728 -170 q 599 18 599 -50 q 652 131 599 76 q 748 226 705 185 q 856 338 817 290 q 895 426 895 385 q 881 459 895 449 q 846 469 867 469 q 728 422 797 469 q 593 267 660 375 l 573 261 l 454 354 q 486 406 469 381 q 519 452 502 431 q 478 473 499 467 q 436 480 456 480 q 335 432 376 480 q 293 314 293 384 q 332 165 293 247 q 446 23 370 84 q 419 -16 437 0 q 374 -33 400 -33 q 223 97 302 -33 q 145 366 145 227 q 211 553 145 479 q 384 627 277 627 q 487 603 437 627 q 585 522 536 578 q 666 579 625 557 q 745 610 707 602 l 777 771 l 150 771 l 136 886 l 151 902 l 1187 902 z "},"ऍ":{"ha":818,"x_min":136,"x_max":1006,"o":"m 382 1199 q 402 1268 382 1252 q 445 1291 421 1284 q 488 1150 454 1195 q 589 1105 523 1105 q 711 1149 656 1105 q 806 1286 766 1194 q 866 1256 846 1276 q 886 1206 886 1236 q 805 1057 886 1134 q 602 981 724 981 q 434 1056 486 981 q 382 1199 382 1132 m 994 902 l 1006 787 l 992 771 l 820 771 l 755 439 q 713 358 746 388 q 637 328 681 328 q 564 354 595 328 q 509 421 533 380 q 578 465 552 435 q 610 530 604 494 l 657 771 l 397 771 l 332 441 q 360 362 321 385 q 538 256 399 340 q 705 134 640 194 q 769 1 769 75 q 722 -113 769 -64 q 620 -161 675 -161 q 548 -132 579 -161 q 505 -54 517 -102 q 600 7 578 -22 q 622 65 622 36 q 598 106 622 85 q 498 166 574 127 q 233 326 307 263 q 184 520 159 389 l 233 771 l 150 771 l 136 886 l 151 902 l 994 902 z "},"ऎ":{"ha":818,"x_min":136,"x_max":1006,"o":"m 637 328 q 564 354 595 328 q 509 421 533 380 q 578 465 552 435 q 610 530 604 494 l 657 771 l 397 771 l 332 441 q 360 362 321 385 q 538 256 399 340 q 705 134 640 194 q 769 1 769 75 q 722 -113 769 -64 q 620 -161 675 -161 q 548 -132 579 -161 q 505 -54 517 -102 q 600 7 578 -22 q 622 65 622 36 q 598 106 622 85 q 498 166 574 127 q 233 326 307 263 q 184 520 159 389 l 233 771 l 150 771 l 136 886 l 151 902 l 686 902 q 702 935 696 920 q 707 960 707 950 q 675 997 707 985 q 559 1013 644 1008 q 262 1091 351 1026 q 174 1232 174 1156 q 186 1291 174 1272 q 216 1326 199 1310 q 306 1235 245 1265 q 524 1180 368 1205 q 738 1087 664 1157 q 831 902 812 1018 l 994 902 l 1006 787 l 992 771 l 820 771 l 755 439 q 713 358 746 388 q 637 328 681 328 z "},"ए":{"ha":818,"x_min":136,"x_max":1006,"o":"m 994 902 l 1006 787 l 992 771 l 820 771 l 755 439 q 713 358 746 388 q 637 328 681 328 q 564 354 595 328 q 509 421 533 380 q 578 465 552 435 q 610 530 604 494 l 657 771 l 397 771 l 332 441 q 360 362 321 385 q 538 256 399 340 q 705 134 640 194 q 769 1 769 75 q 722 -113 769 -64 q 620 -161 675 -161 q 548 -132 579 -161 q 505 -54 517 -102 q 600 7 578 -22 q 622 65 622 36 q 598 106 622 85 q 498 166 574 127 q 233 326 307 263 q 184 520 159 389 l 233 771 l 150 771 l 136 886 l 151 902 l 994 902 z "},"ऐ":{"ha":818,"x_min":136,"x_max":1006,"o":"m 637 328 q 564 354 595 328 q 509 421 533 380 q 578 465 552 435 q 610 530 604 494 l 657 771 l 397 771 l 332 441 q 360 362 321 385 q 538 256 399 340 q 705 134 640 194 q 769 1 769 75 q 722 -113 769 -64 q 620 -161 675 -161 q 548 -132 579 -161 q 505 -54 517 -102 q 600 7 578 -22 q 622 65 622 36 q 598 106 622 85 q 498 166 574 127 q 233 326 307 263 q 184 520 159 389 l 233 771 l 150 771 l 136 886 l 151 902 l 680 902 q 548 1083 593 1042 q 455 1124 502 1124 q 395 1111 422 1124 q 351 1077 368 1097 q 271 1129 300 1093 q 241 1202 241 1164 q 277 1275 241 1240 q 388 1310 313 1310 q 569 1224 479 1310 q 795 902 659 1138 l 994 902 l 1006 787 l 992 771 l 820 771 l 755 439 q 713 358 746 388 q 637 328 681 328 z "},"ऑ":{"ha":1460,"x_min":136,"x_max":1649,"o":"m 1544 1206 q 1462 1057 1544 1134 q 1259 981 1381 981 q 1092 1056 1143 981 q 1040 1199 1040 1132 q 1060 1268 1040 1252 q 1103 1291 1079 1284 q 1146 1150 1112 1195 q 1247 1105 1181 1105 q 1369 1149 1314 1105 q 1464 1286 1423 1194 q 1524 1256 1503 1276 q 1544 1206 1544 1236 m 1636 902 l 1649 787 l 1634 771 l 1470 771 l 1314 -26 l 1297 -39 l 1154 -14 l 1307 771 l 1114 771 l 959 -26 l 942 -39 l 799 -14 l 869 349 q 844 345 854 346 q 820 344 833 344 q 770 349 793 344 q 716 364 747 353 q 729 314 725 342 q 734 260 734 286 q 653 76 734 151 q 450 1 572 1 q 204 151 273 1 q 136 402 136 301 q 150 486 136 450 q 234 526 164 521 q 279 258 228 346 q 429 171 330 171 q 555 213 505 171 q 606 319 606 255 q 596 372 606 345 q 570 415 587 398 q 495 395 536 404 q 408 381 455 387 l 366 526 l 379 543 q 568 601 506 551 q 631 718 631 650 q 608 780 631 756 q 547 803 585 803 q 444 757 490 803 q 385 642 397 711 q 286 668 321 642 q 250 735 250 694 q 318 850 250 795 q 507 905 386 905 q 696 837 628 905 q 764 665 764 768 q 742 552 764 589 q 690 484 720 515 q 716 480 704 481 q 740 479 729 479 q 858 516 806 479 q 922 622 909 553 l 951 771 l 841 771 l 827 886 l 842 902 l 1636 902 z "},"ऒ":{"ha":1460,"x_min":136,"x_max":1649,"o":"m 1636 902 l 1649 787 l 1634 771 l 1470 771 l 1314 -26 l 1297 -39 l 1154 -14 l 1307 771 l 1114 771 l 959 -26 l 942 -39 l 799 -14 l 869 349 q 844 345 854 346 q 820 344 833 344 q 770 349 793 344 q 716 364 747 353 q 729 314 725 342 q 734 260 734 286 q 653 76 734 151 q 450 1 572 1 q 204 151 273 1 q 136 402 136 301 q 150 486 136 450 q 234 526 164 521 q 279 258 228 346 q 429 171 330 171 q 555 213 505 171 q 606 319 606 255 q 596 372 606 345 q 570 415 587 398 q 495 395 536 404 q 408 381 455 387 l 366 526 l 379 543 q 568 601 506 551 q 631 718 631 650 q 608 780 631 756 q 547 803 585 803 q 444 757 490 803 q 385 642 397 711 q 286 668 321 642 q 250 735 250 694 q 318 850 250 795 q 507 905 386 905 q 696 837 628 905 q 764 665 764 768 q 742 552 764 589 q 690 484 720 515 q 716 480 704 481 q 740 479 729 479 q 858 516 806 479 q 922 622 909 553 l 951 771 l 841 771 l 827 886 l 842 902 l 1341 902 q 1356 935 1351 920 q 1361 960 1361 950 q 1330 997 1361 985 q 1214 1013 1299 1008 q 917 1091 1006 1026 q 828 1232 828 1156 q 841 1291 828 1272 q 870 1326 853 1310 q 961 1235 899 1265 q 1178 1180 1022 1205 q 1392 1087 1318 1157 q 1486 902 1466 1018 l 1636 902 z "},"ओ":{"ha":1460,"x_min":136,"x_max":1649,"o":"m 1636 902 l 1649 787 l 1634 771 l 1470 771 l 1314 -26 l 1297 -39 l 1154 -14 l 1307 771 l 1114 771 l 959 -26 l 942 -39 l 799 -14 l 869 349 q 844 345 854 346 q 820 344 833 344 q 770 349 793 344 q 716 364 747 353 q 729 314 725 342 q 734 260 734 286 q 653 76 734 151 q 450 1 572 1 q 204 151 273 1 q 136 402 136 301 q 150 486 136 450 q 234 526 164 521 q 279 258 228 346 q 429 171 330 171 q 555 213 505 171 q 606 319 606 255 q 596 372 606 345 q 570 415 587 398 q 495 395 536 404 q 408 381 455 387 l 366 526 l 379 543 q 568 601 506 551 q 631 718 631 650 q 608 780 631 756 q 547 803 585 803 q 444 757 490 803 q 385 642 397 711 q 286 668 321 642 q 250 735 250 694 q 318 850 250 795 q 507 905 386 905 q 696 837 628 905 q 764 665 764 768 q 742 552 764 589 q 690 484 720 515 q 716 480 704 481 q 740 479 729 479 q 858 516 806 479 q 922 622 909 553 l 951 771 l 841 771 l 827 886 l 842 902 l 1341 902 q 1202 1083 1250 1042 q 1105 1124 1154 1124 q 1045 1111 1072 1124 q 1001 1077 1018 1097 q 921 1129 950 1093 q 891 1202 891 1164 q 927 1275 891 1240 q 1038 1310 963 1310 q 1223 1224 1131 1310 q 1457 902 1316 1138 l 1636 902 z "},"औ":{"ha":1460,"x_min":136,"x_max":1649,"o":"m 1636 902 l 1649 787 l 1634 771 l 1470 771 l 1314 -26 l 1297 -39 l 1154 -14 l 1307 771 l 1114 771 l 959 -26 l 942 -39 l 799 -14 l 869 349 q 844 345 854 346 q 820 344 833 344 q 770 349 793 344 q 716 364 747 353 q 729 314 725 342 q 734 260 734 286 q 653 76 734 151 q 450 1 572 1 q 204 151 273 1 q 136 402 136 301 q 150 486 136 450 q 234 526 164 521 q 279 258 228 346 q 429 171 330 171 q 555 213 505 171 q 606 319 606 255 q 596 372 606 345 q 570 415 587 398 q 495 395 536 404 q 408 381 455 387 l 366 526 l 379 543 q 568 601 506 551 q 631 718 631 650 q 608 780 631 756 q 547 803 585 803 q 444 757 490 803 q 385 642 397 711 q 286 668 321 642 q 250 735 250 694 q 318 850 250 795 q 507 905 386 905 q 696 837 628 905 q 764 665 764 768 q 742 552 764 589 q 690 484 720 515 q 716 480 704 481 q 740 479 729 479 q 858 516 806 479 q 922 622 909 553 l 951 771 l 841 771 l 827 886 l 842 902 l 1314 902 q 1192 986 1252 956 q 1093 1015 1132 1015 q 1035 1002 1060 1015 q 993 966 1010 989 q 909 1013 936 983 q 883 1078 883 1043 q 923 1156 883 1130 q 1008 1181 964 1181 q 1174 1124 1075 1181 q 1374 968 1273 1067 q 1322 1159 1345 1114 q 1268 1203 1298 1203 q 1233 1195 1250 1203 q 1203 1174 1216 1186 q 1130 1225 1152 1196 q 1108 1283 1108 1255 q 1138 1348 1108 1318 q 1226 1378 1167 1378 q 1382 1273 1316 1378 q 1477 902 1448 1167 l 1636 902 z "},"क":{"ha":1100,"x_min":136,"x_max":1289,"o":"m 574 395 q 553 485 585 446 q 462 524 522 524 q 342 475 393 524 q 291 359 291 426 q 322 280 291 310 q 400 250 353 250 q 507 288 456 250 q 572 385 559 326 l 574 395 m 1276 902 l 1289 787 l 1274 771 l 810 771 l 775 593 q 830 620 804 612 q 885 628 856 628 q 1042 556 976 628 q 1109 368 1109 485 q 1043 166 1109 237 q 912 95 978 95 q 844 117 879 95 q 787 185 809 138 q 928 301 869 222 q 987 439 987 380 q 969 485 987 471 q 923 498 951 498 q 798 442 861 498 q 715 283 734 385 l 654 -26 l 637 -39 l 494 -14 l 523 134 q 473 124 496 127 q 431 121 449 121 q 235 206 321 121 q 149 407 149 291 q 230 594 149 518 q 419 669 311 669 q 517 649 468 669 q 610 578 567 628 l 647 771 l 150 771 l 136 886 l 151 902 l 1276 902 z "},"ख":{"ha":1150,"x_min":136,"x_max":1339,"o":"m 927 414 q 910 495 938 458 q 824 532 882 532 q 721 492 763 532 q 680 400 680 453 q 707 328 680 359 q 787 297 735 297 q 875 329 838 297 q 926 410 913 360 l 927 414 m 1326 902 l 1339 787 l 1324 771 l 1159 771 l 1004 -26 l 987 -39 l 844 -14 l 883 189 q 837 177 858 180 q 798 174 817 174 q 627 253 700 174 q 555 436 555 332 q 624 604 555 538 q 793 669 692 669 q 886 650 843 669 q 962 595 929 631 l 996 771 l 490 771 q 508 681 501 729 q 515 591 515 632 q 469 415 515 500 q 294 294 422 330 q 468 143 359 201 q 734 65 578 85 q 682 -9 716 19 q 588 -37 647 -37 q 288 120 439 -37 q 136 414 136 277 q 164 500 136 471 q 244 528 193 528 q 285 524 263 528 q 330 509 307 519 q 376 590 364 545 q 387 680 387 635 q 385 725 387 699 q 380 771 383 751 l 150 771 l 136 886 l 151 902 l 1326 902 z "},"ग":{"ha":882,"x_min":127,"x_max":1071,"o":"m 1058 902 l 1071 787 l 1057 771 l 905 771 l 750 -26 l 733 -39 l 590 -14 l 743 771 l 502 771 l 420 349 q 380 240 405 274 q 315 205 355 205 q 185 280 243 205 q 127 404 127 355 q 145 443 127 427 q 203 458 163 458 l 281 458 l 342 771 l 150 771 l 136 886 l 151 902 l 1058 902 z "},"घ":{"ha":896,"x_min":136,"x_max":1084,"o":"m 1072 902 l 1084 787 l 1070 771 l 919 771 l 764 -26 l 747 -39 l 604 -14 l 633 140 q 563 121 595 127 q 502 116 531 116 q 315 190 383 116 q 246 350 246 263 q 260 422 246 387 q 302 492 275 458 q 224 585 250 534 q 199 684 199 637 q 205 728 199 707 q 224 771 212 749 l 150 771 l 136 886 l 151 902 l 1072 902 m 756 771 l 519 771 q 397 726 445 771 q 349 627 349 680 q 354 592 349 610 q 373 559 360 574 q 441 597 404 581 q 518 623 477 614 l 616 502 l 608 484 q 432 404 490 454 q 373 308 373 354 q 397 261 373 277 q 460 245 422 245 q 597 290 525 245 q 688 427 669 335 l 756 771 z "},"ङ":{"ha":863,"x_min":118,"x_max":1051,"o":"m 735 480 q 768 549 735 519 q 840 578 800 578 q 890 557 871 578 q 909 507 909 536 q 877 437 909 467 q 806 408 845 408 q 755 429 775 408 q 735 480 735 450 m 1038 902 l 1051 787 l 1037 771 l 775 771 l 741 593 l 724 580 l 465 580 q 388 563 421 580 q 355 513 355 547 q 369 487 355 498 q 417 477 383 477 q 492 481 443 477 q 563 486 541 486 q 689 415 639 486 q 739 258 739 345 q 663 86 739 146 q 476 26 587 26 q 208 153 297 26 q 118 352 118 279 q 136 404 118 385 q 181 431 155 422 q 293 246 220 309 q 452 183 366 183 q 574 218 523 183 q 625 303 625 253 q 617 328 625 317 q 590 338 610 338 q 529 333 573 338 q 457 327 485 327 q 290 410 362 327 q 218 574 218 493 q 257 662 218 629 q 377 696 296 696 l 588 696 q 599 699 595 696 q 604 709 604 703 l 616 771 l 150 771 l 136 886 l 151 902 l 1038 902 z "},"च":{"ha":937,"x_min":136,"x_max":1125,"o":"m 1112 902 l 1125 787 l 1111 771 l 960 771 l 804 -26 l 787 -39 l 644 -14 l 678 161 q 601 142 637 148 q 534 136 565 136 q 338 213 410 136 q 266 382 266 289 q 276 446 266 417 q 315 515 287 475 l 180 515 l 167 631 l 181 646 l 665 646 l 679 531 l 665 515 l 644 515 q 470 459 539 515 q 400 338 400 404 q 424 281 400 303 q 492 260 448 260 q 645 316 571 260 q 734 448 719 373 l 797 771 l 150 771 l 136 886 l 151 902 l 1112 902 z "},"छ":{"ha":970,"x_min":136,"x_max":1159,"o":"m 924 771 l 905 671 q 959 594 937 644 q 981 479 981 545 q 834 159 981 311 q 511 7 687 7 q 315 82 395 7 q 235 254 235 157 q 245 317 235 288 q 280 374 256 346 q 211 446 236 401 q 186 538 186 490 q 251 669 186 621 q 397 717 315 717 q 478 690 446 717 q 523 581 510 664 q 371 551 422 581 q 319 481 319 522 q 326 455 319 468 q 348 433 333 443 q 414 464 377 452 q 491 480 450 477 l 581 361 l 572 343 q 418 287 470 328 q 366 201 366 246 q 387 154 366 174 q 452 134 408 134 q 607 184 525 134 q 752 307 689 233 q 662 425 690 366 q 633 537 633 484 q 671 653 633 610 q 763 709 709 696 l 775 771 l 150 771 l 136 886 l 151 902 l 1146 902 l 1159 787 l 1145 771 l 924 771 m 757 486 q 768 435 757 463 q 806 380 779 408 q 853 470 836 427 q 871 549 871 514 q 865 579 871 566 q 840 591 858 591 q 783 559 808 591 q 757 486 757 528 z "},"ज":{"ha":1004,"x_min":136,"x_max":1193,"o":"m 1180 902 l 1193 787 l 1179 771 l 1027 771 l 872 -26 l 855 -39 l 712 -14 l 811 495 l 626 495 q 663 418 650 459 q 675 338 675 377 q 598 166 675 232 q 424 101 522 101 q 218 247 273 101 q 162 493 162 392 q 192 608 162 580 q 267 640 222 635 q 295 357 258 444 q 408 271 332 271 q 500 304 458 271 q 543 397 543 337 q 515 466 543 437 q 431 495 488 495 l 418 610 l 432 626 l 836 626 l 865 771 l 150 771 l 136 886 l 151 902 l 1180 902 z "},"झ":{"ha":1058,"x_min":136,"x_max":1246,"o":"m 918 771 l 728 771 l 690 580 l 674 566 l 441 566 q 359 550 393 566 q 326 503 326 533 q 335 480 326 490 q 361 471 344 471 q 440 485 385 471 q 526 498 495 498 q 573 489 551 498 q 614 462 595 479 q 660 449 637 453 q 702 445 682 445 q 818 482 766 445 q 882 588 869 519 l 918 771 m 1246 787 l 1232 771 l 1080 771 l 925 -26 l 908 -39 l 765 -14 l 831 324 q 812 322 822 323 q 792 321 802 321 q 739 326 766 321 q 685 342 711 332 q 691 310 689 328 q 693 277 693 292 q 628 138 693 203 q 414 62 563 73 q 450 6 427 20 q 513 -9 473 -9 q 554 -6 534 -9 q 592 2 573 -3 q 606 -32 601 -15 q 612 -64 612 -50 q 578 -132 612 -106 q 497 -158 545 -158 q 386 -109 440 -158 q 309 62 331 -59 q 182 111 225 70 q 139 201 139 152 q 168 275 139 246 q 244 303 197 303 q 310 282 283 303 q 355 224 336 260 q 519 261 462 224 q 576 334 576 298 q 570 351 576 347 q 553 355 563 355 q 490 345 532 355 q 414 334 448 334 q 251 417 319 334 q 184 574 184 500 q 227 661 184 626 q 357 696 270 696 l 541 696 q 552 699 547 696 q 557 709 556 703 l 569 771 l 150 771 l 136 886 l 151 902 l 1234 902 l 1246 787 z "},"ञ":{"ha":1086,"x_min":136,"x_max":1274,"o":"m 1261 902 l 1274 787 l 1260 771 l 1109 771 l 954 -26 l 937 -39 l 793 -14 l 852 287 l 850 287 q 792 298 819 287 q 743 330 766 310 q 648 166 721 234 q 453 98 574 98 q 213 222 286 98 q 140 453 140 347 q 166 556 140 528 q 237 583 193 583 q 281 331 233 413 q 420 249 330 249 q 570 315 514 249 q 625 451 625 380 q 608 504 625 488 q 559 520 590 520 q 492 502 524 520 q 435 450 461 483 q 357 491 380 460 q 333 553 333 522 q 377 636 333 597 q 494 674 421 674 q 657 608 585 674 q 746 444 729 542 q 764 439 755 441 q 783 438 774 438 q 853 458 817 438 q 900 534 889 478 l 946 771 l 150 771 l 136 886 l 151 902 l 1261 902 z "},"ट":{"ha":724,"x_min":106,"x_max":913,"o":"m 900 902 l 913 787 l 899 771 l 741 771 l 694 528 l 678 515 l 536 515 q 327 446 407 515 q 246 284 246 377 q 285 190 246 223 q 385 157 324 157 q 527 196 456 157 q 635 295 598 235 q 693 258 669 286 q 718 193 718 229 q 637 74 718 127 q 448 21 557 21 q 206 121 306 21 q 106 351 106 220 q 205 567 106 478 q 471 656 304 656 l 547 656 q 557 659 553 656 q 563 669 562 663 l 583 771 l 150 771 l 136 886 l 151 902 l 900 902 z "},"ठ":{"ha":812,"x_min":116,"x_max":1001,"o":"m 988 902 l 1001 787 l 987 771 l 728 771 l 689 574 q 772 465 741 530 q 803 329 803 400 q 702 105 803 196 q 457 14 601 14 q 216 111 315 14 q 116 342 116 208 q 212 564 116 473 q 462 655 309 655 l 533 655 q 544 659 540 655 q 549 669 548 662 l 569 771 l 150 771 l 136 886 l 151 902 l 988 902 m 665 386 q 623 482 665 450 q 522 515 581 514 q 334 447 416 518 q 252 280 252 375 q 295 179 252 215 q 398 144 337 144 q 580 216 495 144 q 665 386 665 288 z "},"ड":{"ha":754,"x_min":118,"x_max":943,"o":"m 930 902 l 943 787 l 928 771 l 789 771 l 754 593 l 738 580 l 465 580 q 388 563 421 580 q 355 513 355 547 q 369 487 355 498 q 417 477 383 477 q 492 481 443 477 q 563 486 541 486 q 689 415 639 486 q 739 258 739 345 q 663 86 739 146 q 476 26 587 26 q 208 153 297 26 q 118 352 118 279 q 136 404 118 385 q 181 431 155 422 q 293 246 220 309 q 452 183 366 183 q 574 218 523 183 q 625 303 625 253 q 617 328 625 317 q 590 338 610 338 q 529 333 573 338 q 457 327 485 327 q 290 410 362 327 q 218 574 218 493 q 257 662 218 629 q 377 696 296 696 l 602 696 q 613 699 608 696 q 618 709 617 703 l 630 771 l 150 771 l 136 886 l 151 902 l 930 902 z "},"ढ":{"ha":738,"x_min":110,"x_max":926,"o":"m 913 902 l 926 787 l 912 771 l 741 771 l 695 535 l 679 522 l 537 522 q 327 449 407 522 q 246 278 246 377 q 287 169 246 208 q 393 130 328 130 q 424 132 408 130 q 456 138 440 134 q 416 204 431 168 q 401 279 401 240 q 449 394 401 351 q 558 437 496 437 q 686 373 635 437 q 736 235 736 308 q 652 71 736 141 q 450 1 568 1 q 212 104 315 1 q 110 347 110 208 q 209 571 110 479 q 476 662 308 662 l 548 662 q 559 665 555 662 q 564 675 563 669 l 583 771 l 150 771 l 136 886 l 151 902 l 913 902 m 634 296 q 627 318 634 310 q 606 326 619 326 q 550 295 577 326 q 524 220 524 264 q 526 195 524 209 q 532 170 528 182 q 605 229 576 195 q 634 296 634 264 z "},"ण":{"ha":998,"x_min":136,"x_max":1186,"o":"m 1173 902 l 1186 787 l 1172 771 l 1021 771 l 865 -26 l 848 -39 l 712 -14 l 865 771 l 739 771 l 667 401 q 581 264 651 318 q 425 211 511 211 q 238 301 313 211 q 187 512 164 391 l 237 771 l 150 771 l 136 886 l 151 902 l 1173 902 m 593 771 l 387 771 l 319 427 q 333 358 311 382 q 395 334 356 334 q 483 371 444 334 q 536 475 523 408 l 593 771 z "},"त":{"ha":862,"x_min":136,"x_max":1050,"o":"m 1036 771 l 885 771 l 730 -26 l 713 -39 l 570 -14 l 667 487 l 460 487 q 328 429 366 487 q 289 299 289 371 q 325 141 289 224 q 428 -7 361 58 q 403 -36 419 -26 q 368 -46 387 -46 q 222 85 296 -46 q 147 361 147 216 q 208 553 147 479 q 383 626 269 626 l 694 626 l 722 771 l 150 771 l 136 886 l 151 902 l 1038 902 l 1050 787 l 1036 771 z "},"थ":{"ha":950,"x_min":193,"x_max":1139,"o":"m 205 774 q 263 898 205 854 q 395 941 320 941 q 572 859 498 941 q 646 669 646 777 q 573 488 646 567 q 351 359 500 408 q 418 294 377 316 q 510 272 458 272 q 663 324 593 272 q 750 461 733 376 l 810 771 l 692 771 l 679 886 l 694 902 l 1126 902 l 1139 787 l 1124 771 l 973 771 l 817 -26 l 800 -39 l 658 -14 l 688 142 q 633 127 657 132 q 585 123 610 123 q 358 208 467 123 q 193 467 249 292 l 205 484 q 440 596 366 529 q 513 747 513 663 q 499 795 513 777 q 453 814 484 814 q 381 788 412 814 q 351 724 351 763 q 370 673 351 697 q 434 632 389 648 q 406 612 424 623 q 360 601 387 601 q 257 651 308 601 q 205 774 205 701 z "},"द":{"ha":738,"x_min":109,"x_max":926,"o":"m 678 515 l 536 515 q 326 446 406 515 q 245 279 245 376 q 284 183 245 217 q 380 149 322 149 q 436 155 406 149 q 492 172 466 161 q 477 202 482 186 q 473 232 473 217 q 506 306 473 274 q 591 338 540 338 q 676 299 644 338 q 707 212 707 260 q 689 144 707 175 q 644 90 670 113 q 688 -5 675 37 q 701 -74 701 -47 q 663 -161 701 -124 q 574 -198 625 -198 q 506 -168 530 -198 q 481 -87 482 -137 q 562 -53 538 -73 q 586 3 586 -33 q 583 23 586 12 q 574 47 581 35 q 514 28 547 36 q 441 21 481 21 q 205 117 301 21 q 109 345 109 213 q 199 560 109 465 q 475 655 288 655 l 547 655 q 557 659 553 655 q 563 669 562 662 l 583 771 l 150 771 l 136 886 l 151 902 l 913 902 l 926 787 l 912 771 l 741 771 l 694 528 l 678 515 z "},"ध":{"ha":899,"x_min":181,"x_max":1087,"o":"m 1087 787 l 1073 771 l 922 771 l 766 -26 l 749 -39 l 606 -14 l 634 127 q 578 114 607 118 q 522 109 550 109 q 319 181 401 109 q 237 355 237 254 q 255 441 237 400 q 306 519 273 482 q 215 624 249 563 q 181 745 181 684 q 239 883 181 825 q 388 941 297 941 q 506 896 465 941 q 547 796 547 851 q 522 723 547 743 q 471 703 496 703 q 468 779 480 751 q 425 806 456 806 q 359 773 388 806 q 330 692 330 740 q 343 634 330 664 q 383 578 355 605 q 448 607 413 595 q 521 623 484 618 l 618 503 l 608 485 q 432 411 496 466 q 369 304 369 355 q 392 256 369 274 q 458 238 415 238 q 604 288 533 238 q 690 414 675 338 l 759 771 l 641 771 l 627 886 l 642 902 l 1074 902 l 1087 787 z "},"न":{"ha":801,"x_min":130,"x_max":989,"o":"m 977 902 l 989 787 l 975 771 l 824 771 l 669 -26 l 652 -39 l 509 -14 l 598 446 l 377 446 l 357 341 q 335 300 351 313 q 302 288 319 288 q 193 363 256 288 q 130 505 130 439 q 174 571 130 556 q 274 585 218 585 l 625 585 l 661 771 l 150 771 l 136 886 l 151 902 l 977 902 z "},"ऩ":{"ha":801,"x_min":130,"x_max":989,"o":"m 977 902 l 989 787 l 975 771 l 824 771 l 669 -26 l 652 -39 l 509 -14 l 598 446 l 377 446 l 357 341 q 335 300 351 313 q 302 288 319 288 q 193 363 256 288 q 130 505 130 439 q 174 571 130 556 q 274 585 218 585 l 625 585 l 661 771 l 150 771 l 136 886 l 151 902 l 977 902 m 205 21 q 237 90 205 60 q 309 119 270 119 q 360 98 340 119 q 379 47 379 77 q 347 -22 379 8 q 276 -52 315 -52 q 225 -31 245 -52 q 205 21 205 -9 z "},"प":{"ha":794,"x_min":136,"x_max":983,"o":"m 970 902 l 983 787 l 968 771 l 817 771 l 662 -26 l 645 -39 l 502 -14 l 548 224 q 482 204 513 210 q 424 197 451 197 q 237 292 311 197 q 187 512 163 387 l 237 771 l 150 771 l 136 886 l 151 902 l 970 902 m 654 771 l 393 771 l 328 434 q 334 350 317 379 q 394 321 351 321 q 523 375 456 321 q 604 509 589 430 l 654 771 z "},"फ":{"ha":1058,"x_min":136,"x_max":1246,"o":"m 614 771 l 393 771 l 326 420 q 329 354 317 376 q 376 331 341 331 q 489 381 430 331 q 562 502 548 431 l 614 771 m 1234 902 l 1246 787 l 1232 771 l 770 771 l 739 610 q 798 632 770 625 q 852 639 825 639 q 1004 573 941 639 q 1067 395 1067 508 q 998 187 1067 259 q 865 115 930 115 q 802 135 834 115 q 749 199 770 155 q 886 313 830 237 q 941 452 941 389 q 927 495 941 479 q 882 512 913 512 q 764 467 825 512 q 688 351 702 422 l 615 -26 l 597 -39 l 461 -14 l 507 220 q 460 208 479 212 q 421 204 440 204 q 236 294 309 204 q 186 505 163 385 l 237 771 l 150 771 l 136 886 l 151 902 l 1234 902 z "},"ब":{"ha":834,"x_min":136,"x_max":1023,"o":"m 1010 902 l 1023 787 l 1008 771 l 857 771 l 702 -26 l 685 -39 l 549 -14 l 581 152 q 503 129 540 136 q 435 121 465 121 q 231 207 320 121 q 142 406 142 292 q 235 600 142 524 q 454 676 328 676 q 566 656 511 676 q 666 589 621 635 l 701 771 l 150 771 l 136 886 l 151 902 l 1010 902 m 631 412 l 635 429 q 605 498 642 465 q 496 531 567 531 q 467 529 481 531 q 439 524 453 528 l 573 316 q 611 360 595 336 q 631 412 626 385 m 280 359 q 313 281 280 313 q 406 250 347 250 q 439 253 422 250 q 473 260 456 256 l 336 471 q 295 419 310 448 q 280 359 280 391 z "},"भ":{"ha":985,"x_min":193,"x_max":1174,"o":"m 193 779 q 236 893 193 846 q 358 941 278 941 q 544 841 472 941 q 591 619 615 742 l 559 456 l 785 456 l 846 771 l 668 771 l 654 886 l 669 902 l 1161 902 l 1174 787 l 1160 771 l 1008 771 l 853 -26 l 836 -39 l 693 -14 l 758 317 l 533 317 l 514 219 q 495 178 509 191 q 464 165 481 165 q 353 235 420 165 q 286 374 286 304 q 317 438 286 422 q 399 456 349 454 l 451 725 q 451 787 458 761 q 408 814 444 814 q 352 790 373 814 q 332 731 332 766 q 349 681 332 705 q 407 632 366 656 q 380 615 396 623 q 342 608 363 608 q 242 656 291 608 q 193 779 193 704 z "},"म":{"ha":845,"x_min":109,"x_max":1034,"o":"m 1021 902 l 1034 787 l 1019 771 l 868 771 l 713 -26 l 696 -39 l 553 -14 l 614 304 l 356 304 l 337 205 q 318 164 332 177 q 288 152 304 152 q 176 221 243 152 q 109 361 109 291 q 129 416 109 393 q 222 442 149 439 l 286 771 l 150 771 l 136 886 l 151 902 l 1021 902 m 705 771 l 447 771 l 383 443 l 642 443 l 705 771 z "},"य":{"ha":887,"x_min":136,"x_max":1076,"o":"m 1063 902 l 1076 787 l 1061 771 l 910 771 l 755 -26 l 738 -39 l 595 -14 l 628 155 q 575 141 598 145 q 522 136 551 136 q 308 219 412 136 q 155 494 205 302 l 167 511 q 352 600 308 550 q 397 722 397 650 q 396 748 397 734 q 393 771 395 762 l 150 771 l 136 886 l 151 902 l 1063 902 m 747 771 l 496 771 q 518 695 511 735 q 526 621 526 655 q 470 479 526 537 q 310 385 414 421 q 374 310 333 335 q 462 286 415 286 q 602 336 532 286 q 688 468 673 386 l 747 771 z "},"र":{"ha":642,"x_min":136,"x_max":830,"o":"m 817 902 l 830 787 l 816 771 l 584 771 q 604 684 596 730 q 611 596 611 637 q 541 406 611 490 q 296 290 471 322 q 415 150 346 207 q 581 45 485 92 q 535 -14 564 8 q 468 -35 505 -35 q 246 132 356 -35 q 136 414 136 298 q 165 496 136 465 q 247 528 195 528 q 303 519 272 528 q 366 489 335 510 q 459 569 434 520 q 484 685 484 617 q 482 728 484 703 q 476 771 480 752 l 150 771 l 136 886 l 151 902 l 817 902 z "},"ऱ":{"ha":642,"x_min":-5,"x_max":830,"o":"m 817 902 l 830 787 l 816 771 l 584 771 q 604 684 596 730 q 611 596 611 637 q 541 406 611 490 q 296 290 471 322 q 415 150 346 207 q 581 45 485 92 q 535 -14 564 8 q 468 -35 505 -35 q 246 132 356 -35 q 136 414 136 298 q 165 496 136 465 q 247 528 195 528 q 303 519 272 528 q 366 489 335 510 q 459 569 434 520 q 484 685 484 617 q 482 728 484 703 q 476 771 480 752 l 150 771 l 136 886 l 151 902 l 817 902 m -5 21 q 27 90 -5 60 q 99 119 60 119 q 150 98 130 119 q 169 47 169 77 q 137 -22 169 8 q 66 -52 104 -52 q 15 -31 35 -52 q -5 21 -5 -9 z "},"ल":{"ha":977,"x_min":134,"x_max":1166,"o":"m 1153 902 l 1166 787 l 1152 771 l 1000 771 l 845 -26 l 828 -39 l 685 -14 l 783 488 q 657 407 708 459 q 568 275 607 354 l 549 269 l 431 361 q 463 417 446 390 q 500 467 480 444 q 467 492 484 484 q 429 500 450 500 q 327 451 372 500 q 282 326 282 401 q 327 158 282 250 q 461 -4 372 65 q 429 -40 449 -26 q 387 -53 408 -53 q 223 87 313 -53 q 134 381 134 227 q 197 571 134 500 q 363 642 261 642 q 477 613 425 642 q 568 534 529 585 q 681 600 619 575 q 810 629 742 624 l 838 771 l 150 771 l 136 886 l 151 902 l 1153 902 z "},"ळ":{"ha":1025,"x_min":110,"x_max":1213,"o":"m 1200 902 l 1213 787 l 1199 771 l 932 771 l 897 585 q 1009 479 965 552 q 1053 324 1053 407 q 978 139 1053 215 q 798 62 902 62 q 677 95 734 62 q 569 186 621 127 q 483 102 528 134 q 374 69 438 69 q 189 156 269 69 q 110 355 110 242 q 188 540 110 463 q 374 617 265 617 q 490 588 434 617 q 602 499 547 559 q 671 571 638 545 q 745 606 705 597 l 777 771 l 150 771 l 136 886 l 151 902 l 1200 902 m 546 427 q 491 462 519 450 q 431 474 462 474 q 300 414 353 474 q 247 286 247 355 q 264 230 247 251 q 315 209 281 209 q 413 258 368 209 q 525 398 458 307 l 546 427 m 916 393 q 901 447 916 426 q 852 467 885 467 q 757 423 804 467 q 639 281 710 378 l 621 256 q 675 215 646 228 q 735 201 704 201 q 863 260 810 201 q 916 393 916 319 z "},"ऴ":{"ha":1025,"x_min":110,"x_max":1213,"o":"m 1200 902 l 1213 787 l 1199 771 l 932 771 l 897 585 q 1009 479 965 552 q 1053 324 1053 407 q 978 139 1053 215 q 798 62 902 62 q 677 95 734 62 q 569 186 621 127 q 483 102 528 134 q 374 69 438 69 q 189 156 269 69 q 110 355 110 242 q 188 540 110 463 q 374 617 265 617 q 490 588 434 617 q 602 499 547 559 q 671 571 638 545 q 745 606 705 597 l 777 771 l 150 771 l 136 886 l 151 902 l 1200 902 m 546 427 q 491 462 519 450 q 431 474 462 474 q 300 414 353 474 q 247 286 247 355 q 264 230 247 251 q 315 209 281 209 q 413 258 368 209 q 525 398 458 307 l 546 427 m 916 393 q 901 447 916 426 q 852 467 885 467 q 757 423 804 467 q 639 281 710 378 l 621 256 q 675 215 646 228 q 735 201 704 201 q 863 260 810 201 q 916 393 916 319 m 454 -56 q 487 13 454 -17 q 559 43 519 43 q 609 22 590 43 q 629 -29 629 1 q 596 -98 629 -68 q 526 -128 564 -128 q 474 -107 494 -128 q 454 -56 454 -86 z "},"व":{"ha":834,"x_min":136,"x_max":1023,"o":"m 1010 902 l 1023 787 l 1008 771 l 857 771 l 702 -26 l 685 -39 l 549 -14 l 581 152 q 503 129 540 136 q 435 121 465 121 q 231 207 320 121 q 142 406 142 292 q 235 600 142 524 q 454 676 328 676 q 566 656 511 676 q 666 589 621 635 l 701 771 l 150 771 l 136 886 l 151 902 l 1010 902 m 635 429 q 605 498 642 465 q 496 531 567 531 q 345 481 410 531 q 280 359 280 431 q 313 281 280 313 q 406 250 347 250 q 549 297 481 250 q 631 412 618 345 l 635 429 z "},"श":{"ha":1052,"x_min":118,"x_max":1240,"o":"m 614 700 q 598 758 614 739 q 553 777 581 777 q 476 742 505 777 q 447 658 447 707 q 469 587 447 621 q 542 520 492 552 q 596 614 578 569 q 614 700 614 659 m 1227 902 l 1240 787 l 1226 771 l 1075 771 l 920 -26 l 903 -39 l 760 -14 l 912 771 l 708 771 q 734 699 725 739 q 744 621 744 659 q 661 397 744 515 q 401 217 578 278 q 455 133 420 154 q 530 112 491 112 q 587 120 559 112 q 643 143 616 129 q 667 98 660 119 q 675 59 675 78 q 642 -15 675 14 q 550 -44 610 -44 q 408 15 474 -44 q 296 202 341 73 q 165 246 213 209 q 118 334 118 283 q 149 408 118 379 q 229 437 180 437 q 297 420 265 437 q 353 369 329 402 q 420 406 389 385 q 478 450 452 427 q 344 565 388 501 q 300 699 300 628 q 306 749 300 735 q 314 771 311 762 l 150 771 l 136 886 l 151 902 l 1227 902 z "},"ष":{"ha":794,"x_min":136,"x_max":983,"o":"m 970 902 l 983 787 l 968 771 l 817 771 l 662 -26 l 645 -39 l 502 -14 l 548 224 q 482 204 513 210 q 424 197 451 197 q 237 292 311 197 q 187 512 163 387 l 237 771 l 150 771 l 136 886 l 151 902 l 970 902 m 604 509 l 654 771 l 428 771 l 590 467 q 598 487 595 477 q 604 509 602 498 m 328 434 q 334 350 317 379 q 394 321 351 321 q 458 335 425 321 q 521 374 492 349 l 371 656 l 328 434 z "},"स":{"ha":963,"x_min":136,"x_max":1152,"o":"m 823 771 l 541 771 q 564 684 555 728 q 572 601 572 639 q 562 521 572 562 q 526 438 551 481 q 557 433 541 435 q 588 431 573 431 q 716 468 661 431 q 785 574 771 505 l 823 771 m 1139 902 l 1152 787 l 1137 771 l 985 771 l 830 -26 l 813 -39 l 670 -14 l 734 315 q 688 309 703 310 q 661 307 673 307 q 552 320 602 307 q 454 361 503 333 q 382 319 423 338 q 291 290 342 301 q 407 154 339 210 q 568 52 474 98 q 519 -7 553 14 q 453 -28 486 -28 q 244 136 352 -28 q 136 415 136 300 q 165 497 136 466 q 247 528 195 528 q 299 521 271 528 q 355 499 328 513 q 424 578 404 531 q 443 685 443 625 q 441 728 443 704 q 435 771 439 752 l 150 771 l 136 886 l 151 902 l 1139 902 z "},"ह":{"ha":723,"x_min":136,"x_max":911,"o":"m 899 902 l 911 787 l 897 771 l 748 771 l 709 573 l 693 559 l 420 559 q 335 530 361 559 q 309 468 309 500 q 310 453 309 461 q 312 440 311 446 q 376 459 341 452 q 448 466 410 466 q 634 398 566 466 q 702 245 702 330 q 660 132 702 173 q 564 92 618 92 q 491 116 523 92 q 454 182 460 141 q 553 236 522 207 q 585 296 585 264 q 568 330 585 316 q 512 343 552 343 q 357 289 430 343 q 284 153 284 235 q 372 24 284 76 q 624 -28 459 -28 q 587 -90 616 -67 q 490 -113 557 -113 q 247 -23 355 -113 q 138 198 138 67 q 162 304 138 256 q 232 392 186 353 q 187 457 205 419 q 170 535 170 494 q 211 639 170 595 q 334 682 253 682 l 559 682 q 570 686 566 682 q 574 696 574 689 l 589 771 l 150 771 l 136 886 l 151 902 l 899 902 z "},"ऺ":{"ha":0,"x_min":89,"x_max":286,"o":"m 135 1086 l 155 1101 l 286 1083 l 239 844 l 220 829 l 89 847 l 135 1086 z "},"ऻ":{"ha":443,"x_min":136,"x_max":631,"o":"m 618 902 l 631 787 l 617 771 l 452 771 l 297 -26 l 280 -39 l 137 -14 l 290 771 l 150 771 l 136 886 l 151 902 l 322 902 l 357 1086 l 377 1101 l 508 1083 l 473 902 l 618 902 z "},"़":{"ha":0,"x_min":-91,"x_max":83,"o":"m -91 -28 q -58 40 -91 10 q 14 70 -26 70 q 64 49 45 70 q 83 -2 83 28 q 51 -71 83 -41 q -20 -101 19 -101 q -71 -80 -51 -101 q -91 -28 -91 -59 z "},"ऽ":{"ha":710,"x_min":139,"x_max":771,"o":"m 758 902 l 771 787 l 757 771 l 561 771 q 417 740 460 771 q 375 667 375 708 q 494 564 375 593 q 678 412 613 536 q 701 348 693 382 q 708 283 708 313 q 629 107 708 188 q 425 26 551 26 q 216 123 292 26 q 139 317 139 219 q 160 396 139 368 q 228 431 181 425 q 273 243 220 300 q 402 186 326 186 q 533 231 481 186 q 585 336 585 276 q 462 453 585 429 q 271 612 340 477 q 252 666 258 637 q 245 721 245 694 q 310 856 245 810 q 476 902 375 902 l 758 902 z "},"ा":{"ha":443,"x_min":136,"x_max":631,"o":"m 617 771 l 452 771 l 297 -26 l 280 -39 l 137 -14 l 290 771 l 150 771 l 136 886 l 151 902 l 618 902 l 631 787 l 617 771 z "},"ि":{"ha":443,"x_min":136,"x_max":1262,"o":"m 248 1042 q 343 1229 248 1152 q 607 1306 439 1306 q 970 1195 793 1306 q 1262 875 1147 1084 l 1161 836 q 933 1066 1073 982 q 639 1150 793 1150 q 451 1101 514 1150 q 389 983 389 1053 q 394 942 389 964 q 412 902 399 920 l 618 902 l 631 787 l 617 771 l 452 771 l 297 -26 l 280 -39 l 137 -14 l 290 771 l 150 771 l 136 886 l 151 902 l 292 902 q 259 968 271 932 q 248 1042 248 1004 z "},"ी":{"ha":443,"x_min":-215,"x_max":631,"o":"m 617 771 l 452 771 l 297 -26 l 280 -39 l 137 -14 l 290 771 l 150 771 l 136 886 l 151 902 l 326 902 q 230 1108 291 1055 q 103 1162 169 1162 q -19 1117 31 1162 q -69 1007 -69 1073 q -45 933 -69 972 q 38 849 -22 895 l -68 849 q -175 945 -135 881 q -215 1078 -215 1008 q -140 1239 -215 1171 q 58 1306 -64 1306 q 286 1213 183 1306 q 441 902 388 1120 l 618 902 l 631 787 l 617 771 z "},"ु":{"ha":0,"x_min":-486,"x_max":89,"o":"m -273 -85 q -225 -12 -273 -44 q -114 20 -178 20 q 32 -45 -26 20 q 89 -189 89 -111 q 18 -328 89 -281 q -147 -376 -52 -376 q -394 -268 -302 -376 q -486 -84 -486 -161 q -464 -23 -486 -50 q -415 11 -441 4 q -320 -176 -385 -115 q -171 -237 -256 -237 q -65 -208 -106 -237 q -24 -140 -24 -178 q -35 -115 -24 -123 q -63 -106 -45 -106 q -113 -121 -86 -106 q -170 -168 -139 -135 q -248 -140 -222 -163 q -273 -85 -273 -117 z "},"ू":{"ha":0,"x_min":-332,"x_max":230,"o":"m -332 -178 q -264 -36 -332 -87 q -112 14 -196 14 q 124 -88 18 14 q 230 -253 230 -190 q 215 -289 230 -273 q 176 -311 201 -305 q 48 -170 113 -214 q -85 -126 -16 -126 q -178 -150 -140 -126 q -216 -212 -216 -174 q -208 -235 -216 -226 q -182 -244 -199 -244 q -134 -230 -162 -244 q -68 -179 -105 -215 q -4 -208 -24 -184 q 17 -261 17 -233 q -24 -336 17 -302 q -137 -371 -65 -371 q -279 -311 -226 -371 q -332 -178 -332 -251 z "},"ृ":{"ha":0,"x_min":-313,"x_max":106,"o":"m -94 65 l -3 -22 l -6 -40 q -157 -107 -125 -72 q -189 -169 -189 -143 q -179 -194 -189 -184 q -149 -203 -170 -203 q -52 -174 -107 -203 q 35 -116 4 -145 q 86 -155 66 -127 q 106 -212 106 -182 q 48 -293 106 -262 q -80 -324 -11 -324 q -250 -256 -186 -324 q -313 -120 -313 -189 q -260 -13 -313 -63 q -94 65 -208 37 z "},"ॄ":{"ha":0,"x_min":-338,"x_max":82,"o":"m -113 62 l -3 -22 l -6 -40 q -187 -114 -155 -77 q -220 -171 -220 -152 q -215 -184 -220 -180 q -201 -189 -210 -189 q -153 -173 -183 -189 q -66 -125 -123 -158 l 8 -212 l 1 -231 q -148 -306 -115 -277 q -180 -357 -180 -334 q -172 -374 -180 -368 q -148 -380 -163 -380 q -75 -360 -119 -380 q 5 -296 -32 -340 q 58 -330 34 -307 q 82 -381 82 -352 q 30 -457 82 -420 q -101 -494 -23 -494 q -249 -440 -191 -494 q -307 -324 -307 -386 q -300 -287 -307 -304 q -276 -250 -293 -269 q -322 -194 -306 -227 q -338 -127 -338 -161 q -289 -24 -338 -78 q -113 62 -239 30 z "},"ॅ":{"ha":0,"x_min":-38,"x_max":465,"o":"m -38 1202 q -19 1272 -38 1255 q 24 1295 1 1288 q 68 1153 33 1198 q 169 1108 102 1108 q 290 1153 235 1108 q 386 1289 345 1198 q 445 1259 425 1279 q 465 1210 465 1240 q 384 1061 465 1137 q 181 984 303 984 q 14 1060 65 984 q -38 1202 -38 1135 z "},"ॆ":{"ha":0,"x_min":-410,"x_max":248,"o":"m -410 1232 q -397 1291 -410 1272 q -368 1326 -385 1310 q -277 1235 -338 1265 q -60 1180 -216 1205 q 155 1088 81 1158 q 248 902 229 1018 l 244 882 l 99 882 l 103 902 q 119 936 114 921 q 123 960 123 951 q 92 997 123 985 q -24 1013 61 1008 q -321 1091 -232 1026 q -410 1232 -410 1156 z "},"े":{"ha":0,"x_min":-323,"x_max":231,"o":"m -323 1202 q -287 1275 -323 1240 q -176 1310 -251 1310 q 5 1224 -85 1310 q 231 902 94 1138 l 220 847 l 109 847 l 119 902 q -16 1083 31 1042 q -109 1124 -62 1124 q -169 1111 -142 1124 q -213 1077 -196 1097 q -293 1129 -264 1093 q -323 1202 -323 1164 z "},"ै":{"ha":0,"x_min":-337,"x_max":257,"o":"m -112 1283 q -82 1348 -112 1318 q 6 1378 -53 1378 q 161 1273 96 1378 q 257 902 227 1167 l 246 847 l 83 847 l 94 902 q -28 985 32 956 q -127 1015 -88 1015 q -185 1002 -160 1015 q -227 966 -210 989 q -311 1013 -284 983 q -337 1078 -337 1043 q -297 1156 -337 1130 q -212 1181 -256 1181 q -49 1127 -144 1181 q 149 974 46 1073 q 100 1157 122 1112 q 48 1203 77 1203 q 13 1195 30 1203 q -17 1174 -4 1186 q -90 1225 -68 1196 q -112 1283 -112 1255 z "},"ॉ":{"ha":368,"x_min":-52,"x_max":557,"o":"m -52 1199 q -32 1268 -52 1252 q 11 1291 -13 1284 q 54 1150 20 1195 q 155 1105 89 1105 q 277 1149 222 1105 q 372 1286 332 1194 q 432 1256 412 1276 q 452 1206 452 1236 q 371 1057 452 1134 q 168 981 290 981 q 0 1056 52 981 q -52 1199 -52 1132 m 543 771 l 378 771 l 222 -26 l 205 -39 l 62 -14 l 215 771 l 75 771 l 62 886 l 77 902 l 544 902 l 557 787 l 543 771 z "},"ॊ":{"ha":443,"x_min":-189,"x_max":631,"o":"m 618 902 l 631 787 l 617 771 l 452 771 l 297 -26 l 280 -39 l 137 -14 l 290 771 l 150 771 l 136 886 l 151 902 l 323 902 q 339 935 334 920 q 344 960 344 950 q 313 997 344 985 q 197 1013 281 1008 q -100 1091 -12 1026 q -189 1232 -189 1156 q -177 1291 -189 1272 q -147 1326 -164 1310 q -57 1235 -118 1265 q 161 1180 5 1205 q 375 1087 301 1157 q 469 902 449 1018 l 618 902 z "},"ो":{"ha":443,"x_min":-126,"x_max":631,"o":"m 618 902 l 631 787 l 617 771 l 452 771 l 297 -26 l 280 -39 l 137 -14 l 290 771 l 150 771 l 136 886 l 151 902 l 323 902 q 184 1083 233 1042 q 87 1124 136 1124 q 27 1111 54 1124 q -16 1077 1 1097 q -97 1129 -67 1093 q -126 1202 -126 1164 q -90 1275 -126 1240 q 20 1310 -54 1310 q 206 1224 113 1310 q 439 902 299 1138 l 618 902 z "},"ौ":{"ha":443,"x_min":-134,"x_max":631,"o":"m 618 902 l 631 787 l 617 771 l 452 771 l 297 -26 l 280 -39 l 137 -14 l 290 771 l 150 771 l 136 886 l 151 902 l 296 902 q 175 986 235 956 q 76 1015 115 1015 q 18 1002 43 1015 q -24 966 -7 989 q -108 1013 -81 983 q -134 1078 -134 1043 q -94 1156 -134 1130 q -9 1181 -54 1181 q 157 1124 58 1181 q 357 968 256 1067 q 304 1159 328 1114 q 251 1203 281 1203 q 216 1195 233 1203 q 186 1174 199 1186 q 113 1225 135 1196 q 91 1283 91 1255 q 120 1348 91 1318 q 209 1378 150 1378 q 365 1273 299 1378 q 460 902 431 1167 l 618 902 z "},"्":{"ha":0,"x_min":-241,"x_max":224,"o":"m -241 -136 q -212 -82 -241 -102 q -121 -62 -182 -62 q -63 -69 -100 -62 q 28 -109 -26 -76 q 169 -235 114 -161 q 224 -340 224 -309 q 212 -364 224 -349 q 174 -386 201 -378 q 33 -253 96 -283 q -90 -222 -30 -222 q -138 -224 -113 -222 q -181 -229 -163 -227 q -227 -182 -212 -205 q -241 -136 -241 -159 z "},"ॏ":{"ha":443,"x_min":-224,"x_max":631,"o":"m 618 902 l 631 787 l 617 771 l 452 771 l 297 -26 l 280 -39 l 137 -14 l 290 771 l 150 771 l 136 886 l 151 902 l 328 902 l 330 911 q 300 959 336 943 q 140 975 264 975 q -144 1035 -63 975 q -224 1164 -224 1096 q -215 1212 -224 1192 q -190 1252 -206 1232 q -108 1141 -164 1182 q 86 1099 -52 1099 q 273 1076 203 1099 q 375 1009 343 1052 q 356 1095 382 1061 q 224 1144 330 1128 q 19 1213 76 1166 q -39 1305 -39 1259 q -29 1347 -39 1326 q -2 1385 -20 1369 q 50 1317 8 1339 q 212 1269 92 1294 q 425 1152 367 1237 q 468 902 484 1066 l 618 902 z "},"ॐ":{"ha":1260,"x_min":116,"x_max":1311,"o":"m 1081 1013 q 1050 947 1081 975 q 982 918 1019 918 q 933 939 952 918 q 913 988 913 959 q 945 1054 913 1025 q 1014 1082 976 1082 q 1062 1062 1043 1082 q 1081 1013 1081 1042 m 1264 947 q 1181 799 1264 868 q 980 729 1099 729 q 809 806 863 729 q 755 946 755 882 q 776 1015 755 991 q 813 1046 796 1040 q 856 909 815 964 q 968 853 897 853 q 1088 901 1029 853 q 1181 1041 1146 948 q 1243 1005 1222 1028 q 1264 947 1264 981 m 717 462 q 887 581 817 462 q 1087 701 958 701 q 1241 629 1171 701 q 1311 451 1311 558 q 1234 263 1311 338 q 1061 189 1157 189 q 943 250 970 189 q 937 364 916 312 q 971 342 948 351 q 1019 334 994 334 q 1134 387 1084 334 q 1184 503 1184 440 q 1173 544 1184 529 q 1139 558 1161 558 q 981 442 1058 558 q 798 326 903 326 q 757 331 779 326 q 713 348 734 337 q 718 315 716 334 q 719 280 719 295 q 636 79 719 157 q 430 1 553 1 q 185 151 254 1 q 116 402 116 300 q 140 498 116 469 q 212 547 163 528 q 258 264 209 357 q 410 171 308 171 q 535 213 484 171 q 586 319 586 255 q 578 367 586 343 q 557 407 571 391 q 477 387 521 395 q 380 374 433 379 l 338 519 l 351 536 q 565 597 498 545 q 631 718 631 650 q 609 779 631 755 q 548 803 587 803 q 445 757 491 803 q 385 642 398 711 q 287 668 322 642 q 251 735 251 694 q 319 850 251 795 q 507 905 387 905 q 697 838 628 905 q 766 667 766 770 q 745 559 766 610 q 675 469 724 509 q 696 464 686 466 q 717 462 707 462 z "},"॑":{"ha":0,"x_min":118,"x_max":328,"o":"m 178 1303 l 197 1318 l 328 1300 l 269 993 l 249 978 l 118 996 l 178 1303 z "},"॒":{"ha":0,"x_min":-465,"x_max":-10,"o":"m -24 -122 l -10 -226 l -451 -226 l -465 -122 l -24 -122 z "},"॓":{"ha":0,"x_min":77,"x_max":360,"o":"m 204 1309 l 360 1029 l 233 988 l 77 1268 l 204 1309 z "},"॔":{"ha":0,"x_min":37,"x_max":412,"o":"m 301 1309 l 412 1268 l 147 988 l 37 1029 l 301 1309 z "},"ॖ":{"ha":0,"x_min":-355,"x_max":258,"o":"m -355 -138 q -345 -92 -355 -111 q -316 -57 -334 -72 q -222 -164 -282 -124 q -80 -203 -162 -203 q 64 -172 -9 -203 q 187 -81 138 -140 q 239 -119 220 -95 q 258 -175 258 -143 q 169 -288 258 -236 q -45 -340 80 -340 q -271 -272 -186 -340 q -355 -138 -355 -204 z "},"ॗ":{"ha":0,"x_min":-393,"x_max":258,"o":"m -355 -138 q -345 -92 -355 -111 q -316 -57 -334 -72 q -222 -164 -282 -124 q -80 -203 -162 -203 q 64 -172 -9 -203 q 187 -81 138 -140 q 239 -119 220 -95 q 258 -175 258 -143 q 169 -288 258 -236 q -45 -340 80 -340 q -271 -272 -186 -340 q -355 -138 -355 -204 m 216 -423 q 146 -512 216 -476 q -39 -547 76 -547 q -298 -471 -202 -547 q -393 -332 -393 -395 q -383 -291 -393 -308 q -356 -260 -373 -273 q -241 -372 -315 -331 q -66 -414 -168 -414 q 74 -395 12 -414 q 175 -345 136 -376 q 206 -382 196 -359 q 216 -423 216 -404 z "},"क़":{"ha":1100,"x_min":136,"x_max":1289,"o":"m 574 395 q 553 485 585 446 q 462 524 522 524 q 342 475 393 524 q 291 359 291 426 q 322 280 291 310 q 400 250 353 250 q 507 288 456 250 q 572 385 559 326 l 574 395 m 1276 902 l 1289 787 l 1274 771 l 810 771 l 775 593 q 830 620 804 612 q 885 628 856 628 q 1042 556 976 628 q 1109 368 1109 485 q 1043 166 1109 237 q 912 95 978 95 q 844 117 879 95 q 787 185 809 138 q 928 301 869 222 q 987 439 987 380 q 969 485 987 471 q 923 498 951 498 q 798 442 861 498 q 715 283 734 385 l 654 -26 l 637 -39 l 494 -14 l 523 134 q 473 124 496 127 q 431 121 449 121 q 235 206 321 121 q 149 407 149 291 q 230 594 149 518 q 419 669 311 669 q 517 649 468 669 q 610 578 567 628 l 647 771 l 150 771 l 136 886 l 151 902 l 1276 902 m 162 -26 q 194 42 162 12 q 267 72 227 72 q 316 51 297 72 q 336 0 336 30 q 304 -69 336 -39 q 233 -99 272 -99 q 182 -78 202 -99 q 162 -26 162 -57 z "},"ख़":{"ha":1150,"x_min":90,"x_max":1339,"o":"m 927 414 q 910 495 938 458 q 824 532 882 532 q 721 492 763 532 q 680 400 680 453 q 707 328 680 359 q 787 297 735 297 q 875 329 838 297 q 926 410 913 360 l 927 414 m 1326 902 l 1339 787 l 1324 771 l 1159 771 l 1004 -26 l 987 -39 l 844 -14 l 883 189 q 837 177 858 180 q 798 174 817 174 q 627 253 700 174 q 555 436 555 332 q 624 604 555 538 q 793 669 692 669 q 886 650 843 669 q 962 595 929 631 l 996 771 l 490 771 q 508 681 501 729 q 515 591 515 632 q 469 415 515 500 q 294 294 422 330 q 468 143 359 201 q 734 65 578 85 q 682 -9 716 19 q 588 -37 647 -37 q 288 120 439 -37 q 136 414 136 277 q 164 500 136 471 q 244 528 193 528 q 285 524 263 528 q 330 509 307 519 q 376 590 364 545 q 387 680 387 635 q 385 725 387 699 q 380 771 383 751 l 150 771 l 136 886 l 151 902 l 1326 902 m 90 -47 q 123 22 90 -8 q 195 52 155 52 q 245 31 226 52 q 264 -20 264 9 q 232 -90 264 -60 q 161 -119 200 -119 q 110 -98 130 -119 q 90 -47 90 -77 z "},"ग़":{"ha":882,"x_min":127,"x_max":1071,"o":"m 1058 902 l 1071 787 l 1057 771 l 905 771 l 750 -26 l 733 -39 l 590 -14 l 743 771 l 502 771 l 420 349 q 380 240 405 274 q 315 205 355 205 q 185 280 243 205 q 127 404 127 355 q 145 443 127 427 q 203 458 163 458 l 281 458 l 342 771 l 150 771 l 136 886 l 151 902 l 1058 902 m 286 21 q 319 90 286 60 q 391 119 351 119 q 441 98 422 119 q 460 47 460 77 q 428 -22 460 8 q 357 -52 396 -52 q 306 -31 326 -52 q 286 21 286 -9 z "},"ज़":{"ha":1004,"x_min":136,"x_max":1193,"o":"m 1180 902 l 1193 787 l 1179 771 l 1027 771 l 872 -26 l 855 -39 l 712 -14 l 811 495 l 626 495 q 663 418 650 459 q 675 338 675 377 q 598 166 675 232 q 424 101 522 101 q 218 247 273 101 q 162 493 162 392 q 192 608 162 580 q 267 640 222 635 q 295 357 258 444 q 408 271 332 271 q 500 304 458 271 q 543 397 543 337 q 515 466 543 437 q 431 495 488 495 l 418 610 l 432 626 l 836 626 l 865 771 l 150 771 l 136 886 l 151 902 l 1180 902 m 276 -67 q 309 1 276 -28 q 380 31 341 31 q 431 10 412 31 q 450 -41 450 -11 q 418 -110 450 -80 q 347 -140 386 -140 q 296 -119 316 -140 q 276 -67 276 -98 z "},"ड़":{"ha":754,"x_min":118,"x_max":943,"o":"m 930 902 l 943 787 l 928 771 l 789 771 l 754 593 l 738 580 l 465 580 q 388 563 421 580 q 355 513 355 547 q 369 487 355 498 q 417 477 383 477 q 492 481 443 477 q 563 486 541 486 q 689 415 639 486 q 739 258 739 345 q 663 86 739 146 q 476 26 587 26 q 208 153 297 26 q 118 352 118 279 q 136 404 118 385 q 181 431 155 422 q 293 246 220 309 q 452 183 366 183 q 574 218 523 183 q 625 303 625 253 q 617 328 625 317 q 590 338 610 338 q 529 333 573 338 q 457 327 485 327 q 290 410 362 327 q 218 574 218 493 q 257 662 218 629 q 377 696 296 696 l 602 696 q 613 699 608 696 q 618 709 617 703 l 630 771 l 150 771 l 136 886 l 151 902 l 930 902 m 302 -142 q 334 -73 302 -103 q 406 -43 366 -43 q 456 -64 437 -43 q 475 -115 475 -85 q 444 -184 475 -155 q 373 -214 412 -214 q 322 -193 342 -214 q 302 -142 302 -172 z "},"ढ़":{"ha":738,"x_min":110,"x_max":926,"o":"m 913 902 l 926 787 l 912 771 l 741 771 l 695 535 l 679 522 l 537 522 q 327 449 407 522 q 246 278 246 377 q 287 169 246 208 q 393 130 328 130 q 424 132 408 130 q 456 138 440 134 q 416 204 431 168 q 401 279 401 240 q 449 394 401 351 q 558 437 496 437 q 686 373 635 437 q 736 235 736 308 q 652 71 736 141 q 450 1 568 1 q 212 104 315 1 q 110 347 110 208 q 209 571 110 479 q 476 662 308 662 l 548 662 q 559 665 555 662 q 564 675 563 669 l 583 771 l 150 771 l 136 886 l 151 902 l 913 902 m 634 296 q 627 318 634 310 q 606 326 619 326 q 550 295 577 326 q 524 220 524 264 q 526 195 524 209 q 532 170 528 182 q 605 229 576 195 q 634 296 634 264 m 302 -142 q 334 -73 302 -103 q 406 -43 366 -43 q 456 -64 437 -43 q 475 -115 475 -85 q 444 -184 475 -155 q 373 -214 412 -214 q 322 -193 342 -214 q 302 -142 302 -172 z "},"फ़":{"ha":1058,"x_min":136,"x_max":1246,"o":"m 614 771 l 400 771 l 332 420 q 334 353 323 376 q 377 331 345 331 q 489 381 430 331 q 562 502 548 431 l 614 771 m 1234 902 l 1246 787 l 1232 771 l 770 771 l 739 610 q 798 632 770 625 q 852 639 825 639 q 1004 573 941 639 q 1067 395 1067 508 q 998 187 1067 259 q 865 115 930 115 q 802 135 834 115 q 749 199 770 155 q 886 313 830 237 q 941 452 941 389 q 927 495 941 479 q 882 512 913 512 q 764 467 825 512 q 688 351 702 422 l 615 -26 l 597 -39 l 461 -14 l 507 220 q 460 208 479 212 q 421 204 440 204 q 236 294 309 204 q 186 505 163 385 l 237 771 l 150 771 l 136 886 l 151 902 l 1234 902 m 171 21 q 203 90 171 60 q 275 119 236 119 q 326 98 307 119 q 345 47 345 77 q 313 -22 345 8 q 242 -52 281 -52 q 191 -31 211 -52 q 171 21 171 -9 z "},"य़":{"ha":887,"x_min":136,"x_max":1076,"o":"m 1063 902 l 1076 787 l 1061 771 l 910 771 l 754 -26 l 737 -39 l 595 -14 l 628 155 q 575 141 598 145 q 522 136 551 136 q 308 219 412 136 q 155 494 205 302 l 167 511 q 352 600 308 550 q 397 722 397 650 q 396 748 397 734 q 393 771 395 762 l 150 771 l 136 886 l 151 902 l 1063 902 m 747 771 l 496 771 q 518 695 511 735 q 526 621 526 655 q 470 479 526 537 q 310 385 414 421 q 374 310 333 335 q 462 286 415 286 q 602 336 532 286 q 688 468 673 386 l 747 771 m 157 21 q 190 90 157 60 q 262 119 222 119 q 312 98 293 119 q 332 47 332 77 q 299 -22 332 8 q 229 -52 267 -52 q 177 -31 197 -52 q 157 21 157 -9 z "},"ॠ":{"ha":1203,"x_min":136,"x_max":1391,"o":"m 1004 87 q 1081 112 1033 87 q 1162 181 1130 136 q 1221 144 1190 173 q 1253 77 1253 115 q 1197 -8 1253 31 q 1069 -47 1141 -47 q 906 28 972 -47 q 840 177 840 104 q 882 270 840 228 q 1008 358 923 313 l 995 397 q 887 360 945 374 q 768 344 829 347 l 696 -26 l 679 -39 l 536 -14 l 591 273 q 441 171 505 217 q 303 66 377 124 l 192 182 l 196 201 q 376 330 283 266 q 571 453 470 394 q 474 520 506 506 q 420 534 443 534 q 340 513 381 534 q 265 457 298 492 q 198 510 222 482 q 175 567 175 537 q 223 651 175 610 q 354 691 272 691 q 467 657 411 691 q 640 522 524 624 l 688 771 l 150 771 l 136 886 l 151 902 l 1378 902 l 1391 787 l 1377 771 l 851 771 l 797 491 q 873 513 837 498 q 944 548 909 527 q 932 583 936 566 q 929 612 929 600 q 958 682 929 649 q 1042 715 986 715 q 1134 676 1099 715 q 1168 588 1168 636 q 1145 515 1168 550 q 1080 448 1121 479 q 1111 348 1095 395 q 1141 258 1126 300 q 1004 171 1040 205 q 968 114 968 137 q 980 93 968 99 q 1004 87 991 87 z "},"ॡ":{"ha":1026,"x_min":136,"x_max":1215,"o":"m 1202 902 l 1215 787 l 1200 771 l 932 771 l 898 592 q 986 507 951 564 q 1021 383 1021 450 q 998 286 1021 321 q 891 189 975 251 q 779 107 836 149 q 723 36 723 66 q 728 23 723 29 q 744 18 732 18 q 794 31 762 18 q 875 72 826 45 l 956 -22 l 947 -41 q 783 -124 818 -92 q 747 -175 747 -156 q 755 -191 747 -186 q 778 -197 763 -197 q 862 -174 809 -197 q 951 -106 916 -151 q 1005 -140 981 -117 q 1029 -192 1029 -163 q 975 -268 1029 -233 q 845 -303 922 -303 q 693 -249 753 -303 q 633 -130 633 -195 q 642 -89 633 -103 q 661 -62 650 -74 q 602 -6 624 -39 q 581 64 581 26 q 616 153 581 115 q 741 260 652 192 q 856 353 817 319 q 895 430 895 386 q 883 459 895 450 q 848 469 870 469 q 730 423 798 469 q 593 267 661 377 l 573 261 l 454 354 q 486 406 469 381 q 519 452 502 431 q 478 473 499 467 q 436 480 456 480 q 335 432 376 480 q 293 314 293 385 q 331 166 293 247 q 446 23 370 86 q 416 -20 435 -8 q 377 -33 397 -33 q 222 103 298 -33 q 146 373 146 239 q 212 554 146 481 q 385 627 278 627 q 487 603 437 627 q 585 522 536 578 q 666 579 625 557 q 745 610 707 602 l 777 771 l 150 771 l 136 886 l 151 902 l 1202 902 z "},"ॢ":{"ha":0,"x_min":-414,"x_max":149,"o":"m 73 -365 q -8 -425 30 -402 q -45 -465 -45 -448 q -40 -477 -45 -473 q -24 -481 -35 -481 q 26 -467 -5 -481 q 78 -427 57 -454 q 119 -453 104 -437 q 134 -486 134 -469 q 100 -535 134 -512 q 17 -558 66 -558 q -86 -518 -46 -558 q -127 -439 -127 -478 q -102 -381 -127 -411 q -35 -313 -78 -351 q 26 -256 -4 -286 q 56 -196 56 -226 q 48 -174 56 -182 q 24 -166 40 -166 q -45 -196 -2 -166 q -121 -319 -87 -226 l -140 -328 l -222 -278 q -199 -221 -212 -247 q -174 -176 -186 -196 q -193 -169 -183 -171 q -214 -166 -203 -166 q -280 -193 -252 -166 q -308 -258 -308 -219 q -275 -349 -308 -300 q -182 -435 -241 -398 q -209 -468 -191 -456 q -241 -479 -227 -479 q -348 -400 -281 -479 q -414 -226 -414 -321 q -371 -113 -414 -158 q -258 -68 -328 -68 q -193 -81 -225 -68 q -128 -124 -160 -94 q -63 -85 -96 -96 q -3 -75 -31 -75 q 103 -117 58 -75 q 149 -225 149 -160 q 126 -306 149 -274 q 73 -365 104 -337 z "},"ॣ":{"ha":0,"x_min":-414,"x_max":155,"o":"m -414 -224 q -371 -113 -414 -157 q -261 -68 -328 -68 q -193 -81 -226 -68 q -129 -124 -161 -94 q -64 -85 -96 -96 q -4 -75 -31 -75 q 103 -118 57 -75 q 149 -224 149 -161 q 124 -303 149 -274 q 66 -355 100 -332 q -7 -402 22 -387 q -37 -437 -37 -418 q -34 -445 -37 -442 q -24 -448 -31 -448 q 12 -437 -11 -448 q 66 -408 35 -427 l 98 -475 l 88 -493 q -5 -544 14 -524 q -24 -576 -24 -564 q -18 -588 -24 -584 q -3 -591 -13 -591 q 47 -578 16 -591 q 100 -537 79 -564 q 141 -564 126 -547 q 155 -597 155 -580 q 121 -646 155 -623 q 39 -669 87 -669 q -65 -629 -24 -669 q -105 -550 -105 -589 q -99 -524 -105 -536 q -76 -498 -92 -511 q -115 -461 -100 -484 q -130 -416 -130 -439 q -111 -362 -130 -387 q -41 -298 -92 -336 q 28 -244 1 -267 q 54 -192 54 -221 q 47 -173 54 -179 q 27 -167 40 -167 q -42 -196 3 -167 q -121 -318 -87 -225 l -140 -328 l -223 -278 q -200 -221 -212 -247 q -174 -176 -187 -196 q -194 -169 -184 -171 q -215 -166 -204 -166 q -280 -193 -252 -166 q -309 -256 -309 -219 q -275 -345 -309 -297 q -181 -428 -242 -392 q -208 -461 -190 -449 q -241 -473 -226 -473 q -348 -395 -281 -473 q -414 -224 -414 -318 z "},"।":{"ha":638,"x_min":332,"x_max":675,"o":"m 515 902 l 532 914 l 675 890 l 492 -54 l 475 -66 l 332 -41 l 515 902 z "},"॥":{"ha":909,"x_min":332,"x_max":947,"o":"m 787 902 l 804 914 l 947 890 l 764 -54 l 746 -66 l 603 -41 l 787 902 m 515 902 l 532 914 l 675 890 l 492 -54 l 475 -66 l 332 -41 l 515 902 z "},"०":{"ha":758,"x_min":149,"x_max":765,"o":"m 477 709 q 684 616 603 709 q 765 404 765 523 q 666 180 765 267 q 443 92 568 92 q 233 185 318 92 q 149 397 149 279 q 248 617 149 525 q 477 709 347 709 m 634 456 q 604 534 634 506 q 522 562 573 562 q 359 494 431 562 q 288 345 288 427 q 316 267 288 298 q 397 236 345 236 q 557 300 479 236 q 634 456 634 365 z "},"१":{"ha":596,"x_min":118,"x_max":657,"o":"m 313 203 q 389 144 344 180 q 456 88 435 107 q 520 8 503 46 q 538 -61 538 -31 q 499 -155 538 -116 q 408 -195 460 -195 q 338 -165 366 -195 q 301 -86 311 -135 q 366 -46 345 -67 q 387 -3 387 -24 q 375 26 387 13 q 346 54 364 39 q 235 141 199 169 q 118 232 271 113 l 122 252 q 253 355 195 307 q 356 441 311 402 q 254 537 295 482 q 212 661 212 593 q 283 815 212 758 q 438 873 353 873 q 595 798 533 873 q 657 627 657 724 q 581 439 657 526 q 313 203 505 352 m 473 734 q 396 695 428 734 q 364 610 364 656 q 378 558 364 584 q 425 509 392 532 q 499 602 476 562 q 523 679 523 642 q 510 720 523 705 q 473 734 496 734 z "},"२":{"ha":761,"x_min":156,"x_max":802,"o":"m 566 37 q 616 47 591 37 q 671 75 640 56 q 704 31 692 56 q 715 -20 715 5 q 681 -95 715 -63 q 587 -127 647 -127 q 451 -65 520 -127 q 342 165 382 -3 q 204 212 252 167 q 156 309 156 256 q 195 392 156 359 q 284 424 233 424 q 352 405 321 424 q 403 347 382 386 q 611 492 544 407 q 677 646 677 578 q 651 712 677 691 q 581 734 624 734 q 447 682 503 734 q 378 562 391 631 q 282 590 317 562 q 247 665 247 618 q 332 807 247 742 q 532 873 416 873 q 728 788 654 873 q 802 588 802 703 q 708 353 802 456 q 439 186 614 250 q 490 71 462 104 q 566 37 519 37 z "},"३":{"ha":695,"x_min":125,"x_max":751,"o":"m 485 -43 q 525 -37 506 -43 q 568 -18 545 -31 q 597 -60 587 -35 q 608 -106 608 -84 q 576 -173 608 -146 q 497 -201 545 -201 q 380 -154 441 -201 q 292 18 319 -107 q 170 65 214 24 q 125 157 125 106 q 162 241 125 206 q 250 275 198 275 q 325 248 292 275 q 372 168 357 220 q 514 223 467 180 q 562 314 562 265 q 551 355 562 336 q 518 389 541 374 q 426 368 477 377 q 317 354 376 359 l 276 486 l 290 502 q 543 568 473 513 q 614 682 614 623 q 594 726 614 711 q 537 742 574 742 q 420 700 470 742 q 357 595 370 658 q 259 623 294 595 q 224 696 224 652 q 294 816 224 761 q 477 871 363 871 q 677 797 603 871 q 751 626 751 722 q 720 516 751 565 q 623 431 690 467 q 680 348 659 398 q 701 250 701 298 q 623 95 701 161 q 398 21 545 30 q 432 -29 412 -15 q 485 -43 451 -43 z "},"४":{"ha":807,"x_min":205,"x_max":918,"o":"m 610 418 l 587 394 q 663 286 637 337 q 688 186 688 235 q 625 42 688 92 q 479 -7 562 -7 q 327 56 385 -7 q 269 200 269 119 q 298 301 269 257 q 404 430 328 345 q 251 589 297 531 q 205 700 205 646 q 253 819 205 769 q 364 869 301 869 q 437 839 409 869 q 477 757 465 810 q 388 713 415 745 q 360 648 360 681 q 387 589 360 616 q 474 506 414 561 l 510 544 q 631 672 622 663 q 794 847 640 682 l 918 746 q 808 628 886 711 q 610 418 730 545 m 404 164 q 416 128 404 142 q 450 114 429 114 q 516 146 485 114 q 547 231 547 178 q 538 277 547 255 q 515 319 530 300 q 428 225 453 254 q 404 164 404 197 z "},"५":{"ha":764,"x_min":140,"x_max":778,"o":"m 770 425 q 754 347 770 385 q 708 273 737 309 q 754 163 730 223 q 778 48 778 102 q 733 -59 778 -18 q 626 -101 688 -101 q 548 -72 579 -101 q 508 22 517 -42 q 624 65 599 35 q 650 143 650 96 q 647 174 650 158 q 640 202 644 189 q 523 132 587 159 q 398 104 459 104 q 219 181 298 104 q 140 376 140 258 q 219 606 140 481 q 409 857 298 730 l 541 755 q 343 496 410 611 q 275 319 275 382 q 294 262 275 283 q 350 241 313 241 q 444 268 392 241 q 553 346 495 294 q 526 397 535 370 q 517 449 517 425 q 555 538 517 502 q 649 575 594 575 q 739 529 707 575 q 770 425 770 483 z "},"६":{"ha":720,"x_min":153,"x_max":696,"o":"m 696 216 q 675 147 696 178 q 621 94 654 117 q 671 2 657 41 q 685 -64 685 -37 q 657 -139 685 -106 q 578 -171 629 -171 q 506 -140 532 -171 q 469 -60 480 -109 q 535 -35 506 -60 q 565 24 565 -11 q 563 38 565 31 q 559 54 562 45 q 497 35 530 42 q 426 28 464 28 q 225 105 297 28 q 153 276 153 182 q 190 397 153 344 q 294 490 227 451 q 241 560 260 520 q 222 644 222 600 q 304 805 222 741 q 515 869 387 869 q 631 831 596 869 q 666 707 667 792 q 625 715 655 710 q 561 721 594 721 q 413 675 466 721 q 361 572 361 629 q 363 548 361 561 q 372 525 366 536 q 458 548 412 539 q 557 562 505 557 l 627 429 l 614 411 q 350 334 414 393 q 286 229 286 276 q 311 175 286 195 q 376 155 335 155 q 423 160 397 155 q 475 176 450 165 q 466 199 469 186 q 463 224 463 212 q 502 304 463 270 q 590 338 541 338 q 669 298 642 338 q 696 216 696 258 z "},"७":{"ha":756,"x_min":127,"x_max":814,"o":"m 377 590 q 441 747 377 684 q 593 809 506 809 q 753 715 692 809 q 814 477 814 621 q 706 159 814 269 q 455 50 597 50 q 214 191 300 50 q 127 545 127 332 q 168 795 127 735 q 277 854 208 854 q 275 361 221 507 q 444 215 328 215 q 538 239 494 215 q 618 311 583 263 q 445 412 512 334 q 377 590 377 491 m 621 663 q 557 636 586 663 q 520 564 529 609 q 548 464 509 505 q 666 409 587 422 q 686 486 680 452 q 692 540 692 521 q 674 629 692 595 q 621 663 656 663 z "},"८":{"ha":720,"x_min":130,"x_max":798,"o":"m 722 227 q 618 95 722 164 q 395 26 515 26 q 209 94 288 26 q 130 270 130 162 q 174 399 130 335 q 359 587 217 463 q 555 748 454 670 q 673 840 656 826 l 798 739 q 668 634 785 730 q 460 458 551 538 q 310 313 353 364 q 268 216 268 262 q 286 172 268 189 q 343 155 303 155 q 490 202 409 155 q 651 340 572 250 q 703 289 683 321 q 722 227 722 257 z "},"९":{"ha":641,"x_min":176,"x_max":678,"o":"m 678 610 q 610 434 678 505 q 414 359 541 364 q 468 274 437 323 q 522 182 499 224 q 551 118 540 149 q 562 58 562 87 q 514 -47 562 -7 q 415 -87 466 -87 q 345 -59 374 -87 q 299 26 315 -30 q 380 70 347 41 q 413 132 413 99 q 381 223 413 174 q 310 324 349 273 q 211 480 246 409 q 176 621 176 552 q 247 797 176 725 q 435 868 318 868 q 607 792 535 868 q 678 610 678 717 m 548 653 q 528 707 548 688 q 474 726 507 726 q 372 683 421 726 q 322 555 322 639 q 325 523 322 539 q 332 493 328 506 q 494 549 441 503 q 548 653 548 595 z "},"॰":{"ha":731,"x_min":224,"x_max":760,"o":"m 506 899 q 688 823 617 899 q 760 649 760 747 q 676 468 760 538 q 485 397 593 397 q 299 474 375 397 q 224 649 224 551 q 308 825 224 751 q 506 899 391 899 m 625 686 q 601 743 625 723 q 536 762 576 762 q 412 716 465 762 q 359 613 359 670 q 384 554 359 576 q 450 531 410 531 q 569 576 513 531 q 625 686 625 621 z "},"ॱ":{"ha":307,"x_min":229,"x_max":404,"o":"m 229 825 q 262 894 229 864 q 334 924 294 924 q 384 903 365 924 q 404 852 404 882 q 371 783 404 812 q 300 753 339 753 q 249 774 269 753 q 229 825 229 795 z "},"ॲ":{"ha":1092,"x_min":136,"x_max":1374,"o":"m 871 1199 q 890 1268 871 1252 q 933 1291 909 1284 q 977 1150 942 1195 q 1078 1105 1011 1105 q 1199 1149 1144 1105 q 1295 1286 1254 1194 q 1354 1256 1334 1276 q 1374 1206 1374 1236 q 1293 1057 1374 1134 q 1090 981 1212 981 q 922 1056 974 981 q 871 1199 871 1132 m 250 735 q 318 850 250 795 q 507 905 386 905 q 696 837 628 905 q 764 665 764 768 q 742 552 764 589 q 690 484 720 515 q 716 480 704 481 q 740 479 729 479 q 858 516 806 479 q 922 622 909 553 l 951 771 l 841 771 l 827 886 l 842 902 l 1267 902 l 1280 787 l 1266 771 l 1114 771 l 959 -26 l 942 -39 l 799 -14 l 869 349 q 844 345 854 346 q 820 344 833 344 q 770 349 793 344 q 716 364 747 353 q 729 314 725 342 q 734 260 734 286 q 653 76 734 151 q 450 1 572 1 q 204 151 273 1 q 136 402 136 301 q 150 486 136 450 q 234 526 164 521 q 279 258 228 346 q 429 171 330 171 q 555 213 505 171 q 606 319 606 255 q 596 372 606 345 q 570 415 587 398 q 495 395 536 404 q 408 381 455 387 l 366 526 l 379 543 q 568 601 506 551 q 631 718 631 650 q 608 780 631 756 q 547 803 585 803 q 444 757 490 803 q 385 642 397 711 q 286 668 321 642 q 250 735 250 694 z "},"ॳ":{"ha":1092,"x_min":136,"x_max":1280,"o":"m 1267 902 l 1280 787 l 1266 771 l 1114 771 l 959 -26 l 942 -39 l 799 -14 l 869 349 q 844 345 854 346 q 820 344 833 344 q 770 349 793 344 q 716 364 747 353 q 729 314 725 342 q 734 260 734 286 q 653 76 734 151 q 450 1 572 1 q 204 151 273 1 q 136 402 136 301 q 150 486 136 450 q 234 526 164 521 q 279 258 228 346 q 429 171 330 171 q 555 213 505 171 q 606 319 606 255 q 596 372 606 345 q 570 415 587 398 q 495 395 536 404 q 408 381 455 387 l 366 526 l 379 543 q 568 601 506 551 q 631 718 631 650 q 608 780 631 756 q 547 803 585 803 q 444 757 490 803 q 385 642 397 711 q 286 668 321 642 q 250 735 250 694 q 318 850 250 795 q 507 905 386 905 q 696 837 628 905 q 764 665 764 768 q 742 552 764 589 q 690 484 720 515 q 716 480 704 481 q 740 479 729 479 q 858 516 806 479 q 922 622 909 553 l 951 771 l 841 771 l 827 886 l 842 902 l 983 902 l 1019 1086 l 1038 1101 l 1169 1083 l 1135 902 l 1267 902 z "},"ॴ":{"ha":1460,"x_min":136,"x_max":1649,"o":"m 1636 902 l 1649 787 l 1634 771 l 1470 771 l 1314 -26 l 1297 -39 l 1154 -14 l 1307 771 l 1114 771 l 959 -26 l 942 -39 l 799 -14 l 869 349 q 844 345 854 346 q 820 344 833 344 q 770 349 793 344 q 716 364 747 353 q 729 314 725 342 q 734 260 734 286 q 653 76 734 151 q 450 1 572 1 q 204 151 273 1 q 136 402 136 301 q 150 486 136 450 q 234 526 164 521 q 279 258 228 346 q 429 171 330 171 q 555 213 505 171 q 606 319 606 255 q 596 372 606 345 q 570 415 587 398 q 495 395 536 404 q 408 381 455 387 l 366 526 l 379 543 q 568 601 506 551 q 631 718 631 650 q 608 780 631 756 q 547 803 585 803 q 444 757 490 803 q 385 642 397 711 q 286 668 321 642 q 250 735 250 694 q 318 850 250 795 q 507 905 386 905 q 696 837 628 905 q 764 665 764 768 q 742 552 764 589 q 690 484 720 515 q 716 480 704 481 q 740 479 729 479 q 858 516 806 479 q 922 622 909 553 l 951 771 l 841 771 l 827 886 l 842 902 l 1339 902 l 1375 1086 l 1394 1101 l 1525 1083 l 1491 902 l 1636 902 z "},"ॵ":{"ha":1460,"x_min":136,"x_max":1649,"o":"m 1636 902 l 1649 787 l 1634 771 l 1470 771 l 1314 -26 l 1297 -39 l 1154 -14 l 1307 771 l 1114 771 l 959 -26 l 942 -39 l 799 -14 l 869 349 q 844 345 854 346 q 820 344 833 344 q 770 349 793 344 q 716 364 747 353 q 729 314 725 342 q 734 260 734 286 q 653 76 734 151 q 450 1 572 1 q 204 151 273 1 q 136 402 136 301 q 150 486 136 450 q 234 526 164 521 q 279 258 228 346 q 429 171 330 171 q 555 213 505 171 q 606 319 606 255 q 596 372 606 345 q 570 415 587 398 q 495 395 536 404 q 408 381 455 387 l 366 526 l 379 543 q 568 601 506 551 q 631 718 631 650 q 608 780 631 756 q 547 803 585 803 q 444 757 490 803 q 385 642 397 711 q 286 668 321 642 q 250 735 250 694 q 318 850 250 795 q 507 905 386 905 q 696 837 628 905 q 764 665 764 768 q 742 552 764 589 q 690 484 720 515 q 716 480 704 481 q 740 479 729 479 q 858 516 806 479 q 922 622 909 553 l 951 771 l 841 771 l 827 886 l 842 902 l 1345 902 l 1347 911 q 1317 959 1353 943 q 1158 975 1281 975 q 873 1035 954 975 q 793 1164 793 1096 q 802 1212 793 1192 q 827 1252 811 1232 q 909 1141 853 1182 q 1103 1099 965 1099 q 1290 1076 1220 1099 q 1392 1009 1360 1052 q 1373 1095 1399 1061 q 1242 1144 1348 1128 q 1036 1213 1093 1166 q 979 1305 979 1259 q 988 1347 979 1326 q 1015 1385 998 1369 q 1067 1317 1025 1339 q 1230 1269 1109 1294 q 1442 1152 1384 1237 q 1485 902 1501 1066 l 1636 902 z "},"ॶ":{"ha":1092,"x_min":136,"x_max":1280,"o":"m 250 735 q 318 850 250 795 q 507 905 386 905 q 696 837 628 905 q 764 665 764 768 q 742 552 764 589 q 690 484 720 515 q 716 480 704 481 q 740 479 729 479 q 858 516 806 479 q 922 622 909 553 l 951 771 l 841 771 l 827 886 l 842 902 l 1267 902 l 1280 787 l 1266 771 l 1114 771 l 959 -26 l 942 -39 l 799 -14 l 869 349 q 844 345 854 346 q 820 344 833 344 q 770 349 793 344 q 716 364 747 353 q 729 314 725 342 q 734 260 734 286 q 653 76 734 151 q 450 1 572 1 q 204 151 273 1 q 136 402 136 301 q 150 486 136 450 q 234 526 164 521 q 279 258 228 346 q 429 171 330 171 q 555 213 505 171 q 606 319 606 255 q 596 372 606 345 q 570 415 587 398 q 495 395 536 404 q 408 381 455 387 l 366 526 l 379 543 q 568 601 506 551 q 631 718 631 650 q 608 780 631 756 q 547 803 585 803 q 444 757 490 803 q 385 642 397 711 q 286 668 321 642 q 250 735 250 694 m 240 -138 q 251 -92 240 -111 q 279 -57 262 -72 q 373 -164 313 -124 q 515 -203 433 -203 q 660 -172 586 -203 q 783 -81 733 -140 q 834 -119 816 -95 q 853 -175 853 -143 q 764 -288 853 -236 q 551 -340 675 -340 q 325 -272 410 -340 q 240 -138 240 -204 z "},"ॷ":{"ha":1460,"x_min":136,"x_max":1649,"o":"m 1636 902 l 1649 787 l 1634 771 l 1470 771 l 1314 -26 l 1297 -39 l 1154 -14 l 1307 771 l 1114 771 l 959 -26 l 942 -39 l 799 -14 l 869 349 q 844 345 854 346 q 820 344 833 344 q 770 349 793 344 q 716 364 747 353 q 729 314 725 342 q 734 260 734 286 q 653 76 734 151 q 450 1 572 1 q 204 151 273 1 q 136 402 136 301 q 150 486 136 450 q 234 526 164 521 q 279 258 228 346 q 429 171 330 171 q 555 213 505 171 q 606 319 606 255 q 596 372 606 345 q 570 415 587 398 q 495 395 536 404 q 408 381 455 387 l 366 526 l 379 543 q 568 601 506 551 q 631 718 631 650 q 608 780 631 756 q 547 803 585 803 q 444 757 490 803 q 385 642 397 711 q 286 668 321 642 q 250 735 250 694 q 318 850 250 795 q 507 905 386 905 q 696 837 628 905 q 764 665 764 768 q 742 552 764 589 q 690 484 720 515 q 716 480 704 481 q 740 479 729 479 q 858 516 806 479 q 922 622 909 553 l 951 771 l 841 771 l 827 886 l 842 902 l 1636 902 m 812 -175 q 724 -288 812 -236 q 510 -340 635 -340 q 284 -272 369 -340 q 199 -138 199 -204 q 210 -92 199 -111 q 239 -57 221 -72 q 333 -164 273 -124 q 475 -203 393 -203 q 619 -172 545 -203 q 742 -81 692 -140 q 794 -119 775 -95 q 812 -175 812 -143 m 488 -414 q 628 -395 566 -414 q 730 -345 690 -376 q 761 -382 751 -359 q 771 -423 771 -404 q 701 -512 771 -476 q 515 -547 631 -547 q 257 -471 353 -547 q 161 -332 161 -395 q 172 -291 161 -308 q 199 -260 182 -273 q 313 -372 239 -331 q 488 -414 387 -414 z "},"ॹ":{"ha":1004,"x_min":136,"x_max":1193,"o":"m 1180 902 l 1193 787 l 1179 771 l 1027 771 l 872 -26 l 855 -39 l 712 -14 l 811 495 l 626 495 q 663 418 650 459 q 675 338 675 377 q 598 166 675 232 q 424 101 522 101 q 218 247 273 101 q 162 493 162 392 q 192 608 162 580 q 267 640 222 635 q 295 357 258 444 q 408 271 332 271 q 500 304 458 271 q 543 397 543 337 q 515 466 543 437 q 431 495 488 495 l 418 610 l 432 626 l 836 626 l 865 771 l 150 771 l 136 886 l 151 902 l 1180 902 m 477 -11 q 503 44 477 20 q 559 68 528 68 q 601 51 585 68 q 616 10 616 34 q 591 -44 616 -21 q 534 -68 565 -68 q 493 -51 509 -68 q 477 -11 477 -35 m 156 -11 q 181 44 156 20 q 238 68 207 68 q 279 51 263 68 q 294 11 294 35 q 269 -44 294 -20 q 212 -68 243 -68 q 172 -51 187 -68 q 156 -11 156 -35 m 292 -145 q 318 -90 292 -114 q 374 -66 343 -66 q 414 -83 399 -66 q 429 -123 429 -100 q 404 -178 429 -155 q 348 -202 379 -202 q 308 -185 323 -202 q 292 -145 292 -169 z "},"ॺ":{"ha":886,"x_min":136,"x_max":1075,"o":"m 1062 902 l 1075 787 l 1061 771 l 909 771 l 754 -26 l 737 -39 l 595 -14 l 628 155 q 575 141 598 145 q 522 136 551 136 q 308 219 412 136 q 155 494 205 302 l 167 511 q 352 600 308 550 q 397 722 397 650 q 396 748 397 734 q 393 771 395 762 l 150 771 l 136 886 l 151 902 l 1062 902 m 697 513 l 747 771 l 560 771 l 697 513 m 310 385 q 374 310 333 335 q 462 286 415 286 q 563 311 511 286 q 649 382 614 337 l 526 614 q 524 597 525 606 q 522 582 523 589 q 455 466 509 515 q 310 385 401 416 z "},"ॻ":{"ha":882,"x_min":69,"x_max":1071,"o":"m 1058 902 l 1071 787 l 1057 771 l 905 771 l 743 -63 l 81 -63 l 69 25 l 84 41 l 601 41 l 743 771 l 502 771 l 420 349 q 380 240 405 274 q 315 205 355 205 q 185 280 243 205 q 127 404 127 355 q 145 443 127 427 q 203 458 163 458 l 281 458 l 342 771 l 150 771 l 136 886 l 151 902 l 1058 902 z "},"ॼ":{"ha":1004,"x_min":76,"x_max":1193,"o":"m 1180 902 l 1193 787 l 1179 771 l 1027 771 l 865 -63 l 88 -63 l 76 25 l 91 41 l 723 41 l 811 495 l 626 495 q 663 418 650 459 q 675 338 675 377 q 598 166 675 232 q 424 101 522 101 q 218 247 273 101 q 162 493 162 392 q 192 608 162 580 q 267 640 222 635 q 295 357 258 444 q 408 271 332 271 q 500 304 458 271 q 543 397 543 337 q 515 466 543 437 q 431 495 488 495 l 418 610 l 432 626 l 836 626 l 865 771 l 150 771 l 136 886 l 151 902 l 1180 902 z "},"ॽ":{"ha":654,"x_min":170,"x_max":732,"o":"m 374 -13 l 357 -25 l 214 -1 l 303 460 q 520 535 449 471 q 591 682 591 600 q 562 753 591 731 q 488 776 532 776 q 366 734 417 776 q 302 629 315 692 q 205 657 241 629 q 170 730 170 686 q 240 850 170 795 q 433 905 311 905 q 650 827 568 905 q 732 631 732 748 q 647 420 732 494 q 438 317 561 347 l 374 -13 z "},"ॾ":{"ha":754,"x_min":63,"x_max":943,"o":"m 930 902 l 943 787 l 928 771 l 789 771 l 754 593 l 738 580 l 465 580 q 388 563 421 580 q 355 513 355 547 q 369 487 355 498 q 417 477 383 477 q 492 481 443 477 q 563 486 541 486 q 689 415 639 486 q 739 258 739 345 q 663 86 739 146 q 476 26 587 26 q 208 153 297 26 q 118 352 118 279 q 136 404 118 385 q 181 431 155 422 q 293 246 220 309 q 452 183 366 183 q 574 218 523 183 q 625 303 625 253 q 617 328 625 317 q 590 338 610 338 q 529 333 573 338 q 457 327 485 327 q 290 410 362 327 q 218 574 218 493 q 257 662 218 629 q 377 696 296 696 l 602 696 q 613 699 608 696 q 618 709 617 703 l 630 771 l 150 771 l 136 886 l 151 902 l 930 902 m 699 -27 l 711 -115 l 696 -131 l 75 -131 l 63 -43 l 77 -27 l 699 -27 z "},"ॿ":{"ha":834,"x_min":70,"x_max":1023,"o":"m 1010 902 l 1023 787 l 1008 771 l 857 771 l 695 -63 l 82 -63 l 70 25 l 85 41 l 559 41 l 581 152 q 503 129 540 136 q 435 121 465 121 q 231 207 320 121 q 142 406 142 292 q 235 600 142 524 q 454 676 328 676 q 566 656 511 676 q 666 589 621 635 l 701 771 l 150 771 l 136 886 l 151 902 l 1010 902 m 631 412 l 635 429 q 605 498 642 465 q 496 531 567 531 q 467 529 481 531 q 439 524 453 528 l 573 316 q 611 360 595 336 q 631 412 626 385 m 280 359 q 313 281 280 313 q 406 250 347 250 q 439 253 422 250 q 473 260 456 256 l 336 471 q 295 419 310 448 q 280 359 280 391 z "},"꣠":{"ha":0,"x_min":-224,"x_max":80,"o":"m -62 1314 q 40 1269 1 1314 q 80 1169 80 1224 q 31 1065 80 1107 q -80 1023 -18 1023 q -183 1068 -142 1023 q -224 1168 -224 1113 q -175 1269 -224 1225 q -62 1314 -126 1314 m -6 1194 q -17 1224 -6 1214 q -44 1234 -27 1234 q -106 1206 -77 1234 q -135 1143 -135 1179 q -125 1112 -135 1124 q -98 1101 -115 1101 q -37 1127 -67 1101 q -6 1194 -6 1154 z "},"꣡":{"ha":0,"x_min":-227,"x_max":45,"o":"m -107 1087 q -77 1064 -93 1076 q -54 1046 -60 1052 q -25 1015 -34 1029 q -16 984 -16 1001 q -37 935 -16 957 q -86 913 -57 913 q -123 926 -105 913 q -151 962 -142 939 q -117 979 -130 971 q -104 1000 -104 987 q -144 1040 -104 1013 q -227 1103 -184 1067 q -170 1146 -198 1124 q -119 1186 -141 1168 q -164 1230 -146 1205 q -182 1286 -182 1255 q -147 1359 -182 1330 q -73 1388 -112 1388 q 12 1350 -22 1388 q 45 1268 45 1313 q 11 1187 45 1225 q -107 1087 -24 1149 m -53 1311 q -76 1296 -64 1311 q -87 1262 -87 1282 q -84 1245 -87 1253 q -74 1230 -81 1237 q -46 1262 -55 1247 q -37 1291 -37 1277 q -41 1306 -37 1302 q -53 1311 -46 1311 z "},"꣢":{"ha":0,"x_min":-231,"x_max":85,"o":"m -47 1018 q -25 1024 -39 1018 q -1 1040 -12 1029 q 23 1013 16 1027 q 31 985 31 998 q 12 948 31 966 q -41 930 -8 930 q -101 954 -71 930 q -150 1057 -131 978 q -211 1079 -191 1055 q -231 1126 -231 1103 q -211 1168 -231 1150 q -162 1185 -191 1185 q -130 1178 -145 1185 q -106 1160 -115 1171 q -28 1216 -53 1183 q -3 1279 -3 1248 q -11 1304 -3 1296 q -33 1312 -19 1312 q -82 1289 -60 1312 q -109 1235 -104 1266 q -171 1247 -147 1232 q -194 1288 -194 1263 q -151 1355 -194 1322 q -50 1388 -109 1388 q 48 1348 12 1388 q 85 1255 85 1308 q 40 1149 85 1201 q -96 1070 -5 1097 q -74 1028 -85 1039 q -47 1018 -62 1018 z "},"꣣":{"ha":0,"x_min":-240,"x_max":60,"o":"m -64 979 q -45 983 -56 979 q -18 996 -33 987 q -5 977 -9 988 q -1 956 -1 965 q -19 924 -1 937 q -58 911 -37 911 q -105 930 -82 911 q -143 1004 -128 949 q -217 1024 -195 1004 q -240 1067 -240 1044 q -223 1107 -240 1089 q -177 1125 -206 1125 q -137 1112 -155 1125 q -112 1078 -119 1099 q -66 1101 -81 1085 q -51 1137 -51 1118 q -54 1150 -51 1144 q -61 1161 -56 1156 q -106 1152 -81 1156 q -158 1146 -131 1148 l -178 1217 q -55 1248 -85 1225 q -24 1296 -24 1270 q -32 1314 -24 1308 q -56 1320 -40 1320 q -105 1302 -83 1320 q -131 1256 -128 1285 q -184 1267 -164 1253 q -204 1302 -204 1281 q -168 1359 -204 1331 q -75 1387 -132 1387 q 23 1350 -14 1387 q 60 1269 60 1313 q 47 1224 60 1244 q 6 1188 34 1205 q 30 1150 22 1172 q 39 1107 39 1128 q 4 1041 39 1070 q -94 1006 -31 1013 q -82 985 -88 991 q -64 979 -75 979 z "},"꣤":{"ha":0,"x_min":-226,"x_max":123,"o":"m 123 1324 l -27 1166 q 7 1116 -4 1139 q 18 1071 18 1093 q -16 1003 18 1028 q -90 978 -50 978 q -167 1011 -137 978 q -197 1080 -197 1044 q -184 1123 -197 1103 q -138 1180 -170 1143 q -205 1252 -185 1223 q -226 1304 -226 1280 q -199 1361 -226 1337 q -141 1385 -172 1385 q -104 1371 -119 1385 q -78 1326 -88 1356 q -118 1305 -107 1316 q -130 1278 -130 1294 q -121 1259 -130 1269 q -92 1230 -113 1249 l 51 1383 l 123 1324 m -117 1064 q -111 1052 -117 1055 q -99 1048 -105 1048 q -77 1057 -88 1048 q -65 1089 -65 1067 q -68 1106 -65 1098 q -75 1122 -71 1115 q -108 1085 -99 1097 q -117 1064 -117 1073 z "},"꣥":{"ha":0,"x_min":-269,"x_max":46,"o":"m 41 1178 q 34 1145 41 1161 q 14 1110 26 1128 q 37 1062 28 1087 q 46 1015 46 1036 q 22 959 46 981 q -35 936 -3 936 q -78 951 -58 936 q -100 998 -97 966 q -49 1017 -64 1005 q -34 1046 -34 1029 q -35 1055 -34 1050 q -37 1063 -35 1060 q -87 1038 -60 1048 q -141 1028 -115 1028 q -230 1066 -191 1028 q -269 1158 -269 1103 q -230 1267 -269 1207 q -136 1387 -191 1328 l -61 1329 q -153 1208 -123 1260 q -182 1130 -182 1156 q -175 1109 -182 1116 q -157 1103 -169 1103 q -125 1111 -143 1103 q -82 1140 -107 1119 q -95 1165 -91 1152 q -100 1190 -100 1179 q -78 1234 -100 1214 q -25 1253 -56 1253 q 24 1229 7 1253 q 41 1178 41 1205 z "},"꣦":{"ha":0,"x_min":-216,"x_max":57,"o":"m 57 1088 q 48 1060 57 1073 q 23 1034 39 1046 q 42 996 36 1012 q 47 970 47 981 q 29 932 47 950 q -17 913 10 913 q -52 928 -37 913 q -69 962 -66 943 q -39 978 -48 966 q -30 1002 -30 989 q -30 1005 -30 1003 q -31 1008 -31 1007 q -57 1000 -43 1003 q -87 998 -71 998 q -181 1034 -146 998 q -216 1113 -216 1070 q -200 1165 -216 1141 q -155 1208 -184 1189 q -177 1241 -169 1223 q -184 1278 -184 1259 q -143 1354 -184 1322 q -47 1386 -102 1386 q 22 1364 5 1386 q 40 1294 39 1343 q 14 1302 30 1299 q -20 1305 -1 1305 q -75 1287 -56 1305 q -95 1244 -95 1269 q -95 1239 -95 1242 q -94 1234 -95 1236 q -55 1243 -77 1239 q -10 1248 -33 1247 l 24 1177 q -97 1145 -66 1171 q -127 1096 -127 1119 q -118 1075 -127 1083 q -90 1066 -108 1066 q -76 1067 -83 1066 q -62 1069 -69 1067 q -67 1081 -65 1074 q -68 1093 -68 1088 q -49 1129 -68 1114 q -5 1144 -30 1144 q 41 1126 24 1144 q 57 1088 57 1109 z "},"꣧":{"ha":0,"x_min":-227,"x_max":109,"o":"m -115 1251 q -86 1326 -115 1294 q -8 1358 -57 1358 q 77 1317 45 1358 q 109 1215 109 1276 q 55 1059 109 1115 q -67 1004 2 1004 q -185 1070 -144 1004 q -227 1235 -227 1137 q -209 1348 -227 1316 q -155 1380 -190 1380 q -148 1380 -151 1380 q -143 1379 -144 1379 q -155 1306 -151 1339 q -159 1243 -159 1274 q -134 1126 -159 1162 q -77 1091 -109 1091 q -41 1099 -58 1091 q -9 1124 -25 1106 q -86 1170 -56 1138 q -115 1251 -115 1202 m 3 1278 q -16 1268 -8 1278 q -24 1238 -24 1257 q -13 1203 -24 1219 q 18 1182 -2 1188 q 25 1201 22 1189 q 28 1231 28 1213 q 21 1265 28 1252 q 3 1278 14 1278 z "},"꣨":{"ha":0,"x_min":-227,"x_max":96,"o":"m 67 1093 q 16 1025 67 1057 q -95 993 -35 993 q -187 1026 -148 993 q -227 1110 -227 1060 q -207 1168 -227 1139 q -118 1257 -186 1198 q -31 1328 -77 1293 q 23 1371 14 1363 l 96 1316 q 42 1271 93 1313 q -54 1190 -9 1229 q -119 1129 -103 1149 q -136 1091 -136 1110 q -129 1074 -136 1080 q -110 1068 -123 1068 q -52 1089 -85 1068 q 18 1153 -18 1109 q 54 1128 41 1144 q 67 1093 67 1112 z "},"꣩":{"ha":0,"x_min":-205,"x_max":47,"o":"m 47 1261 q 17 1184 47 1217 q -67 1144 -13 1152 q -45 1109 -56 1127 q -24 1074 -34 1090 q -10 1042 -15 1057 q -5 1013 -5 1027 q -28 964 -5 985 q -81 942 -52 942 q -124 958 -104 942 q -151 1003 -144 975 q -115 1020 -130 1008 q -99 1047 -99 1031 q -112 1086 -99 1065 q -142 1129 -125 1106 q -189 1201 -172 1168 q -205 1266 -205 1233 q -169 1350 -205 1314 q -75 1385 -133 1385 q 12 1348 -24 1385 q 47 1261 47 1311 m -38 1282 q -44 1302 -38 1295 q -59 1308 -50 1308 q -95 1291 -76 1308 q -113 1237 -113 1273 q -113 1226 -113 1232 q -111 1217 -112 1221 q -56 1241 -74 1223 q -38 1282 -38 1259 z "},"꣪":{"ha":0,"x_min":-345,"x_max":205,"o":"m 134 1328 l 64 968 l -35 977 l -3 1138 q -15 1137 -9 1137 q -26 1136 -21 1136 q -46 1138 -36 1136 q -65 1145 -56 1141 q -59 1120 -61 1135 q -57 1094 -57 1106 q -93 1013 -57 1043 q -186 982 -130 982 q -311 1052 -276 982 q -345 1169 -345 1122 q -333 1214 -345 1196 q -288 1232 -321 1233 q -266 1110 -290 1149 q -201 1072 -241 1072 q -153 1088 -172 1072 q -134 1132 -134 1105 q -136 1150 -134 1141 q -143 1165 -138 1159 q -179 1157 -159 1160 q -221 1152 -199 1154 l -241 1231 q -146 1261 -171 1240 q -122 1315 -122 1282 q -128 1335 -122 1328 q -147 1342 -134 1342 q -190 1323 -170 1342 q -215 1271 -210 1303 q -272 1282 -251 1267 q -294 1319 -294 1297 q -259 1374 -294 1346 q -165 1402 -224 1402 q -71 1367 -106 1402 q -36 1284 -36 1331 q -44 1240 -36 1256 q -64 1211 -53 1223 q -9 1223 -33 1211 q 22 1267 16 1236 l 33 1328 l -20 1328 l -22 1400 l 203 1400 l 205 1328 l 134 1328 z "},"꣫":{"ha":0,"x_min":-254,"x_max":160,"o":"m 75 1272 q 64 1233 75 1253 q 31 1196 54 1214 q 54 1156 46 1178 q 61 1114 61 1135 q 17 1022 61 1062 q -94 982 -27 982 q -220 1057 -186 982 q -254 1181 -254 1133 q -241 1229 -254 1211 q -196 1246 -227 1247 q -167 1111 -195 1152 q -102 1070 -139 1070 q -51 1087 -76 1070 q -26 1140 -26 1105 q -28 1153 -26 1147 q -33 1164 -30 1160 q -76 1156 -52 1159 q -125 1154 -100 1153 l -142 1240 q -46 1264 -73 1247 q -19 1303 -19 1280 q -27 1321 -19 1315 q -51 1328 -36 1328 l -237 1328 l -239 1400 l 159 1400 l 160 1328 l 55 1328 q 70 1298 66 1313 q 75 1272 75 1283 z "},"꣬":{"ha":0,"x_min":-313,"x_max":222,"o":"m -224 1149 q -213 1118 -224 1129 q -185 1107 -202 1107 q -146 1121 -165 1107 q -122 1161 -126 1135 l -121 1166 q -129 1202 -118 1187 q -160 1217 -139 1217 q -204 1198 -183 1217 q -224 1149 -224 1179 m 11 1328 l -1 1272 q 17 1276 7 1274 q 35 1277 26 1277 q 113 1242 79 1277 q 146 1152 146 1206 q 118 1062 146 1100 q 52 1024 90 1024 q 15 1037 32 1024 q -6 1073 -1 1050 q 44 1118 19 1084 q 69 1177 69 1152 q 61 1198 69 1192 q 44 1205 54 1205 q 2 1184 25 1205 q -28 1131 -21 1164 l -60 968 l -158 977 l -146 1040 q -162 1037 -155 1038 q -178 1036 -170 1036 q -268 1077 -228 1036 q -309 1174 -309 1119 q -273 1259 -309 1222 q -185 1296 -237 1296 q -142 1289 -165 1296 q -102 1265 -119 1281 l -90 1328 l -311 1328 l -313 1400 l 220 1400 l 222 1328 l 11 1328 z "},"꣭":{"ha":0,"x_min":-275,"x_max":142,"o":"m 140 1400 l 142 1328 l 71 1328 l 1 968 l -98 977 l -59 1175 l -139 1175 l -149 1127 q -163 1104 -151 1112 q -188 1096 -174 1096 q -245 1138 -215 1096 q -275 1213 -275 1179 q -249 1250 -275 1241 q -195 1258 -222 1258 l -43 1258 l -29 1328 l -265 1328 l -267 1400 l 140 1400 z "},"꣮":{"ha":0,"x_min":-252,"x_max":145,"o":"m 145 1328 l 75 1328 l 5 968 l -94 977 l -75 1076 q -96 1072 -85 1073 q -116 1070 -106 1070 q -210 1116 -174 1070 q -235 1218 -245 1161 l -214 1328 l -250 1328 l -252 1400 l 144 1400 l 145 1328 m -143 1186 q -142 1153 -148 1163 q -123 1142 -136 1142 q -78 1163 -102 1142 q -47 1217 -53 1184 l -25 1328 l -115 1328 l -143 1186 z "},"꣯":{"ha":0,"x_min":-224,"x_max":111,"o":"m 17 1251 q -15 1170 17 1208 q -121 1115 -47 1132 q -68 1054 -98 1078 q 5 1010 -37 1030 q -20 979 -1 994 q -62 965 -39 965 q -172 1043 -120 965 q -224 1173 -224 1122 q -206 1215 -224 1198 q -159 1232 -189 1232 q -132 1228 -146 1232 q -104 1217 -117 1224 q -77 1247 -87 1228 q -67 1298 -67 1267 q -67 1314 -67 1305 q -68 1328 -68 1322 l -216 1328 l -218 1400 l 109 1400 l 111 1328 l 1 1328 q 12 1289 7 1310 q 17 1251 17 1269 z "},"꣰":{"ha":0,"x_min":-380,"x_max":225,"o":"m 225 1328 l 155 1328 l 85 968 l -11 977 l 2 1044 q -25 1038 -11 1040 q -52 1036 -39 1036 q -149 1077 -106 1036 q -193 1171 -193 1118 q -146 1262 -193 1225 q -37 1299 -100 1299 q 6 1294 -16 1299 q 47 1278 29 1289 l 58 1328 l -211 1328 l -281 968 l -380 977 l -311 1328 l -372 1328 l -374 1400 l -313 1400 q -325 1428 -321 1413 q -330 1457 -330 1442 q -281 1545 -330 1508 q -153 1582 -233 1582 q 12 1535 -68 1582 q 144 1400 93 1487 l 224 1400 l 225 1328 m -233 1400 l 55 1400 q -36 1473 15 1448 q -140 1499 -87 1499 q -215 1479 -191 1499 q -239 1430 -239 1459 q -237 1414 -239 1422 q -233 1400 -235 1406 m -100 1151 q -89 1121 -100 1133 q -56 1110 -77 1110 q -3 1127 -28 1110 q 27 1173 22 1144 l 28 1181 q 18 1208 31 1196 q -20 1220 5 1220 q -76 1200 -52 1220 q -100 1151 -100 1180 z "},"꣱":{"ha":0,"x_min":-222,"x_max":88,"o":"m 83 1400 l 88 1328 l -20 1328 q -76 1316 -62 1328 q -89 1288 -89 1305 q -36 1246 -89 1255 q 46 1177 16 1237 q 56 1147 53 1163 q 59 1120 59 1132 q 19 1035 59 1073 q -82 996 -21 996 q -185 1041 -149 996 q -222 1131 -222 1086 q -209 1172 -222 1155 q -162 1190 -195 1189 q -144 1103 -166 1130 q -87 1076 -121 1076 q -38 1094 -58 1076 q -18 1139 -18 1112 q -72 1185 -18 1182 q -161 1259 -125 1189 q -171 1287 -168 1273 q -174 1312 -174 1301 q -140 1377 -174 1353 q -56 1400 -105 1400 l 83 1400 z "},"ꣲ":{"ha":614,"x_min":210,"x_max":713,"o":"m 368 830 q 399 896 368 867 q 468 924 430 924 q 516 904 497 924 q 535 855 535 884 q 504 789 535 817 q 436 760 473 760 q 387 781 406 760 q 368 830 368 801 m 210 789 q 230 859 210 842 q 273 882 249 875 q 316 740 281 785 q 416 695 350 695 q 538 740 483 695 q 633 876 593 785 q 693 846 673 866 q 713 797 713 827 q 632 648 713 724 q 429 571 551 571 q 261 647 313 571 q 210 789 210 722 z "},"ꣳ":{"ha":614,"x_min":172,"x_max":713,"o":"m 368 830 q 399 896 368 867 q 468 924 430 924 q 516 904 497 924 q 535 855 535 884 q 504 789 535 817 q 436 760 473 760 q 387 781 406 760 q 368 830 368 801 m 210 789 q 230 859 210 842 q 273 882 249 875 q 316 740 281 785 q 416 695 350 695 q 538 740 483 695 q 633 876 593 785 q 693 846 673 866 q 713 797 713 827 q 632 648 713 724 q 429 571 551 571 q 261 647 313 571 q 210 789 210 722 m 172 353 q 202 406 172 386 q 293 426 232 426 q 351 419 314 426 q 441 380 388 412 q 583 254 528 328 q 637 149 637 180 q 626 124 637 139 q 587 102 614 110 q 447 236 510 205 q 323 267 384 267 q 275 264 300 267 q 233 259 250 262 q 187 306 202 283 q 172 353 172 329 z "},"ꣴ":{"ha":614,"x_min":98,"x_max":713,"o":"m 368 830 q 399 896 368 867 q 468 924 430 924 q 516 904 497 924 q 535 855 535 884 q 504 789 535 817 q 436 760 473 760 q 387 781 406 760 q 368 830 368 801 m 210 789 q 230 859 210 842 q 273 882 249 875 q 316 740 281 785 q 416 695 350 695 q 538 740 483 695 q 633 876 593 785 q 693 846 673 866 q 713 797 713 827 q 632 648 713 724 q 429 571 551 571 q 261 647 313 571 q 210 789 210 722 m 289 423 q 320 489 289 460 q 389 517 351 517 q 437 497 418 517 q 456 448 456 477 q 425 382 456 410 q 357 353 394 353 q 308 374 327 353 q 289 423 289 394 m 131 382 q 150 452 131 435 q 193 475 170 468 q 237 333 202 378 q 338 288 271 288 q 459 333 404 288 q 555 469 514 378 q 614 439 594 459 q 634 390 634 420 q 553 241 634 317 q 350 164 472 164 q 182 240 234 164 q 131 382 131 315 m 98 -27 q 128 26 98 6 q 219 46 158 46 q 277 39 240 46 q 368 0 314 33 q 509 -126 454 -52 q 564 -231 564 -200 q 552 -255 564 -241 q 513 -277 541 -270 q 373 -144 436 -175 q 250 -113 311 -113 q 202 -116 227 -113 q 159 -121 176 -118 q 113 -74 128 -96 q 98 -27 98 -51 z "},"ꣵ":{"ha":614,"x_min":119,"x_max":713,"o":"m 535 855 q 504 789 535 817 q 436 760 473 760 q 387 781 406 760 q 368 830 368 801 q 399 896 368 867 q 468 924 430 924 q 516 904 497 924 q 535 855 535 884 m 713 797 q 632 648 713 724 q 429 571 551 571 q 261 647 313 571 q 210 789 210 722 q 230 859 210 842 q 273 882 249 875 q 316 740 281 785 q 416 695 350 695 q 538 740 483 695 q 633 876 593 785 q 693 846 673 866 q 713 797 713 827 m 420 -63 q 452 -56 437 -63 q 494 -32 467 -49 q 526 -70 515 -49 q 536 -109 536 -90 q 508 -166 536 -140 q 433 -192 480 -192 q 333 -155 379 -192 q 252 14 287 -118 q 153 51 187 17 q 119 121 119 84 q 151 182 119 157 q 223 208 182 208 q 273 195 250 208 q 311 159 296 182 q 441 255 398 199 q 484 357 484 311 q 468 398 484 386 q 428 411 453 411 q 343 376 380 411 q 300 292 307 340 q 214 311 245 288 q 182 370 182 334 q 247 474 182 425 q 397 522 311 522 q 543 460 488 522 q 597 315 597 397 q 531 152 597 225 q 344 32 466 79 q 377 -42 359 -21 q 420 -63 394 -63 z "},"ꣶ":{"ha":614,"x_min":122,"x_max":713,"o":"m 535 855 q 504 789 535 817 q 436 760 473 760 q 387 781 406 760 q 368 830 368 801 q 399 896 368 867 q 468 924 430 924 q 516 904 497 924 q 535 855 535 884 m 713 797 q 632 648 713 724 q 429 571 551 571 q 261 647 313 571 q 210 789 210 722 q 230 859 210 842 q 273 882 249 875 q 316 740 281 785 q 416 695 350 695 q 538 740 483 695 q 633 876 593 785 q 693 846 673 866 q 713 797 713 827 m 498 203 q 543 133 530 174 q 549 54 556 92 q 485 -40 538 1 q 341 -89 432 -80 q 360 -115 350 -109 q 388 -121 371 -121 q 414 -117 402 -121 q 448 -100 426 -113 q 476 -136 467 -115 q 486 -174 486 -156 q 459 -223 486 -201 q 395 -245 433 -245 q 309 -217 351 -245 q 243 -92 267 -188 q 154 -55 186 -85 q 122 12 122 -24 q 151 74 122 47 q 223 101 180 101 q 281 81 256 101 q 319 27 306 62 q 400 64 374 37 q 427 121 427 90 q 421 145 427 134 q 405 165 416 157 q 337 151 374 157 q 258 142 300 145 l 227 241 l 242 259 q 416 302 368 265 q 463 378 463 338 q 453 406 463 397 q 422 414 442 414 q 349 385 381 414 q 309 312 316 356 q 223 332 255 309 q 191 390 191 355 q 244 477 191 435 q 383 518 298 518 q 531 463 476 518 q 586 338 586 407 q 565 263 586 297 q 498 203 543 230 z "},"ꣷ":{"ha":614,"x_min":114,"x_max":713,"o":"m 368 830 q 399 896 368 867 q 468 924 430 924 q 516 904 497 924 q 535 855 535 884 q 504 789 535 817 q 436 760 473 760 q 387 781 406 760 q 368 830 368 801 m 210 789 q 230 859 210 842 q 273 882 249 875 q 316 740 281 785 q 416 695 350 695 q 538 740 483 695 q 633 876 593 785 q 693 846 673 866 q 713 797 713 827 q 632 648 713 724 q 429 571 551 571 q 261 647 313 571 q 210 789 210 722 m 574 515 l 584 428 l 569 410 l 422 410 q 332 391 357 410 q 307 344 307 371 q 387 278 307 293 q 517 170 468 264 q 534 121 528 147 q 539 75 539 96 q 480 -52 539 7 q 326 -111 421 -111 q 171 -41 227 -111 q 114 99 114 30 q 134 160 114 136 q 203 187 155 184 q 231 53 197 92 q 313 14 264 14 q 394 43 361 14 q 426 113 426 72 q 343 188 426 178 q 208 302 260 197 q 194 342 199 321 q 189 382 189 363 q 240 480 189 445 q 365 515 291 515 l 574 515 z "},"꣸":{"ha":920,"x_min":161,"x_max":954,"o":"m 780 717 q 902 647 850 717 q 954 475 954 576 q 808 159 954 310 q 486 7 661 7 q 290 82 370 7 q 210 254 210 157 q 220 317 210 288 q 255 374 231 346 q 186 446 211 401 q 161 538 161 490 q 225 669 161 621 q 372 717 290 717 q 453 690 420 717 q 498 581 485 664 q 346 551 398 581 q 294 481 294 522 q 301 455 294 468 q 323 433 308 443 q 389 464 352 452 q 466 480 425 477 l 556 361 l 547 343 q 392 286 442 328 q 341 201 341 243 q 362 154 341 174 q 427 134 382 134 q 580 183 498 134 q 727 307 662 232 q 636 425 665 366 q 608 537 608 484 q 668 676 608 636 q 780 717 729 717 m 732 486 q 743 435 732 463 q 781 380 754 408 q 828 470 810 427 q 846 549 846 514 q 840 579 846 566 q 815 591 833 591 q 758 559 783 591 q 732 486 732 528 z "},"꣹":{"ha":817,"x_min":106,"x_max":851,"o":"m 647 442 l 564 372 q 519 450 534 404 q 505 538 505 496 q 566 676 505 635 q 677 717 627 717 q 800 647 748 717 q 851 475 851 576 q 705 159 851 310 q 382 7 558 7 q 186 83 267 7 q 106 252 106 158 q 177 403 106 337 q 363 480 248 469 l 453 361 l 444 343 q 288 286 338 328 q 238 200 238 243 q 259 154 238 174 q 326 134 279 134 q 606 283 468 134 q 743 549 743 432 q 736 579 743 566 q 711 591 730 591 q 654 563 679 591 q 629 498 629 534 q 633 472 629 485 q 647 442 637 458 z "},"꣺":{"ha":696,"x_min":276,"x_max":904,"o":"m 581 899 l 465 899 l 276 1244 l 448 1278 l 547 1032 l 745 1278 l 904 1244 l 581 899 z "},"ꣻ":{"ha":747,"x_min":186,"x_max":986,"o":"m 972 1029 l 200 1029 l 186 1144 l 201 1160 l 972 1160 l 986 1044 l 972 1029 z "}," ":{"ha":407,"x_min":0,"x_max":0,"o":""}}}
